<?xml version="1.0" standalone="no"?>
<!DOCTYPE svg PUBLIC "-//W3C//DTD SVG 20010904//EN"
 "http://www.w3.org/TR/2001/REC-SVG-20010904/DTD/svg10.dtd">
<svg version="1.0" xmlns="http://www.w3.org/2000/svg"
 width="216.000000pt" height="118.000000pt" viewBox="0 0 216.000000 118.000000"
 preserveAspectRatio="xMidYMid meet">

<g transform="translate(0.000000,118.000000) scale(0.100000,-0.100000)"
fill="#000000" stroke="none">
<path d="M537 1173 c299 -2 787 -2 1085 0 299 1 55 2 -542 2 -597 0 -841 -1
-543 -2z"/>
<path d="M492 879 c-139 -69 -131 -275 13 -340 54 -25 102 -24 155 4 65 33
102 85 108 151 12 152 -138 253 -276 185z m161 -46 c90 -45 88 -197 -4 -243
-124 -64 -249 54 -196 183 17 39 36 55 84 72 40 14 70 11 116 -12z"/>
<path d="M1018 813 c-92 -155 -158 -272 -158 -282 0 -8 63 -11 196 -11 175 0
195 2 190 16 -7 18 -162 289 -181 317 -12 17 -16 13 -47 -40z m101 -148 l51
-90 -111 -3 c-62 -1 -114 -1 -116 2 -4 4 49 102 94 175 18 28 18 28 82 -84z"/>
<path d="M1345 857 c-3 -7 -4 -85 -3 -172 l3 -160 195 0 195 0 0 170 0 170
-193 3 c-151 2 -194 0 -197 -11z m343 -165 l3 -133 -153 3 -153 3 -3 119 c-2
74 1 123 8 131 8 10 47 13 153 12 l142 -2 3 -133z"/>
<path d="M425 345 c-29 -28 -33 -79 -9 -113 14 -20 14 -22 0 -22 -9 0 -16 -7
-16 -15 0 -10 11 -15 35 -15 28 0 35 4 35 19 0 10 -6 24 -14 30 -39 33 -20
111 28 111 52 0 73 -66 36 -113 -29 -37 -25 -47 20 -47 29 0 40 4 40 15 0 9
-9 15 -22 15 -20 0 -20 1 -5 18 9 10 20 32 23 50 5 26 1 36 -24 62 -39 39 -92
41 -127 5z"/>
<path d="M690 305 c0 -40 2 -45 23 -45 13 0 28 -5 35 -12 16 -16 -3 -38 -34
-38 -27 0 -32 -17 -9 -26 26 -10 65 6 77 31 13 30 -12 75 -42 75 -11 0 -20 7
-20 15 0 10 10 15 30 15 20 0 30 5 30 15 0 11 -12 15 -45 15 l-45 0 0 -45z"/>
<path d="M845 295 c-19 -31 -35 -60 -35 -65 0 -6 16 -10 35 -10 28 0 35 -4 35
-20 0 -11 7 -20 15 -20 8 0 15 9 15 19 0 11 6 22 13 25 10 5 10 7 0 12 -8 3
-13 26 -13 60 0 71 -18 71 -65 -1z m35 -30 c0 -18 -5 -25 -20 -25 -23 0 -24 3
-8 30 17 27 28 25 28 -5z"/>
<path d="M983 338 c-29 -14 -31 -42 -3 -33 11 4 20 3 19 -2 -1 -4 -1 -34 0
-65 1 -44 5 -58 16 -58 12 0 15 16 15 85 0 90 -3 94 -47 73z"/>
<path d="M1080 335 c0 -11 11 -15 40 -15 l39 0 -24 -52 c-28 -61 -31 -88 -10
-88 8 0 15 8 15 18 0 9 11 41 25 70 36 78 35 82 -30 82 -42 0 -55 -3 -55 -15z"/>
<path d="M1333 343 c-27 -10 -13 -30 18 -25 26 4 30 2 27 -14 -2 -11 -13 -20
-26 -22 -31 -5 -27 -30 6 -34 40 -5 36 -33 -6 -33 -24 0 -32 -4 -30 -15 4 -22
56 -25 79 -4 23 21 24 37 4 58 -9 9 -11 17 -5 21 14 9 13 48 -2 63 -12 12 -43
15 -65 5z"/>
<path d="M1466 337 c-22 -16 -24 -60 -5 -83 9 -11 22 -14 41 -10 26 5 28 4 17
-15 -8 -16 -18 -20 -40 -17 -36 6 -40 -19 -5 -28 35 -8 63 10 76 51 26 78 -28
143 -84 102z m52 -45 c3 -17 -2 -22 -17 -22 -14 0 -21 6 -21 18 0 38 33 41 38
4z"/>
<path d="M1613 336 c-29 -14 -31 -40 -3 -31 19 6 20 2 20 -59 0 -52 3 -66 15
-66 12 0 15 16 15 85 0 90 -3 94 -47 71z"/>
<path d="M1753 338 c-26 -12 -32 -44 -8 -34 12 4 15 -6 15 -59 0 -51 3 -65 15
-65 12 0 15 16 15 85 0 47 -3 85 -7 84 -5 0 -18 -5 -30 -11z"/>
<path d="M1220 250 c0 -5 14 -10 30 -10 17 0 30 5 30 10 0 6 -13 10 -30 10
-16 0 -30 -4 -30 -10z"/>
</g>
</svg>
