<?xml version="1.0" standalone="no"?>
<!DOCTYPE svg PUBLIC "-//W3C//DTD SVG 20010904//EN"
 "http://www.w3.org/TR/2001/REC-SVG-20010904/DTD/svg10.dtd">
<svg version="1.0" xmlns="http://www.w3.org/2000/svg"
 width="216.000000pt" height="113.000000pt" viewBox="0 0 216.000000 113.000000"
 preserveAspectRatio="xMidYMid meet">

<g transform="translate(0.000000,113.000000) scale(0.100000,-0.100000)"
fill="#000000" stroke="none">
<path d="M457 849 c-75 -39 -116 -148 -87 -233 17 -52 91 -113 147 -122 142
-21 257 114 211 247 -18 52 -48 87 -93 109 -53 26 -128 25 -178 -1z m165 -45
c34 -17 68 -81 68 -126 0 -68 -70 -138 -138 -138 -153 0 -198 207 -59 270 44
21 80 19 129 -6z"/>
<path d="M1407 683 c-54 -93 -97 -172 -97 -176 0 -4 88 -7 195 -7 146 0 195 3
195 12 0 14 -165 305 -185 326 -9 11 -31 -20 -108 -155z m162 -32 c28 -49 51
-91 51 -95 0 -3 -49 -6 -110 -6 -75 0 -110 4 -110 11 0 20 101 189 110 184 5
-3 32 -45 59 -94z"/>
<path d="M1007 818 c-8 -12 -54 -90 -101 -173 l-86 -150 196 -3 c108 -1 199 0
202 2 4 4 -146 272 -184 329 -12 18 -13 18 -27 -5z m78 -178 l54 -95 -111 -3
c-61 -1 -113 0 -116 2 -7 7 101 196 111 193 4 -1 32 -45 62 -97z"/>
<path d="M396 319 c-20 -16 -26 -29 -26 -61 0 -25 7 -49 17 -60 15 -17 15 -18
0 -18 -10 0 -17 -7 -17 -15 0 -10 11 -15 35 -15 19 0 35 3 35 8 0 4 -10 26
-22 50 -21 39 -22 44 -8 70 22 38 68 38 90 0 14 -26 13 -31 -8 -70 -12 -24
-22 -46 -22 -50 0 -5 18 -8 40 -8 29 0 40 4 40 15 0 8 -9 15 -20 15 -19 0 -20
1 -5 24 9 14 17 39 17 57 2 67 -88 103 -146 58z"/>
<path d="M678 264 c-21 -30 -38 -59 -38 -65 0 -5 16 -9 35 -9 28 0 35 -4 35
-20 0 -11 7 -20 15 -20 8 0 15 9 15 19 0 11 6 22 13 25 10 5 10 7 0 12 -8 3
-13 26 -13 60 0 70 -14 69 -62 -2z m32 -29 c0 -18 -5 -25 -20 -25 -20 0 -20 1
-4 25 9 14 18 25 20 25 2 0 4 -11 4 -25z"/>
<path d="M811 301 c-25 -25 -35 -78 -22 -113 12 -32 49 -45 81 -28 17 9 20 19
18 47 -4 44 -29 64 -58 45 -24 -15 -26 0 -4 23 10 9 26 14 36 12 14 -4 18 -1
16 11 -5 25 -44 26 -67 3z m47 -93 c-4 -27 -33 -36 -42 -13 -8 22 1 35 25 35
15 0 20 -6 17 -22z"/>
<path d="M937 313 c-13 -13 -7 -32 8 -27 8 4 22 4 30 0 20 -7 8 -36 -16 -36
-27 0 -24 -28 4 -32 36 -5 27 -33 -11 -33 -24 0 -32 -4 -30 -15 4 -19 50 -25
78 -10 24 13 27 55 4 68 -14 8 -14 10 0 21 20 17 20 35 0 55 -16 16 -55 22
-67 9z"/>
<path d="M1067 313 c-15 -15 -5 -29 21 -28 33 0 38 -28 5 -33 -32 -5 -30 -32
2 -32 19 0 25 -5 25 -21 0 -19 -4 -21 -35 -16 -26 4 -35 2 -35 -8 0 -7 9 -17
21 -20 53 -17 106 29 74 65 -11 12 -13 20 -6 25 15 8 14 48 -1 63 -13 13 -60
16 -71 5z"/>
<path d="M1290 275 c0 -40 2 -45 23 -45 13 0 28 -5 35 -12 16 -16 -3 -38 -34
-38 -27 0 -32 -17 -9 -26 26 -10 65 6 77 31 13 30 -12 75 -42 75 -11 0 -20 7
-20 15 0 10 10 15 30 15 20 0 30 5 30 15 0 11 -12 15 -45 15 l-45 0 0 -45z"/>
<path d="M1437 313 c-13 -13 -7 -32 8 -27 8 4 22 4 30 0 20 -7 8 -36 -16 -36
-27 0 -24 -28 4 -32 36 -5 27 -33 -11 -33 -43 0 -40 -29 4 -33 51 -5 88 53 48
76 -14 8 -14 10 0 21 20 17 20 35 0 55 -16 16 -55 22 -67 9z"/>
<path d="M1566 298 c-23 -32 -21 -110 2 -131 46 -41 92 -4 92 74 0 72 -59 108
-94 57z m59 -63 c0 -43 -3 -50 -20 -50 -16 0 -21 8 -23 39 -4 49 3 68 25 64
14 -3 18 -14 18 -53z"/>
<path d="M1702 308 c-15 -15 -16 -54 -2 -63 6 -4 4 -12 -5 -21 -19 -20 -19
-39 1 -58 18 -19 65 -21 82 -4 15 15 16 54 2 63 -7 4 -7 12 0 25 14 26 13 36
-6 54 -18 19 -55 21 -72 4z m53 -38 c0 -8 -8 -16 -17 -18 -13 -2 -18 3 -18 18
0 15 5 20 18 18 9 -2 17 -10 17 -18z m5 -70 c0 -13 -7 -20 -19 -20 -22 0 -35
15 -26 30 12 19 45 11 45 -10z"/>
<path d="M1190 220 c0 -5 14 -10 30 -10 17 0 30 5 30 10 0 6 -13 10 -30 10
-16 0 -30 -4 -30 -10z"/>
</g>
</svg>
