<?xml version="1.0" standalone="no"?>
<!DOCTYPE svg PUBLIC "-//W3C//DTD SVG 20010904//EN"
 "http://www.w3.org/TR/2001/REC-SVG-20010904/DTD/svg10.dtd">
<svg version="1.0" xmlns="http://www.w3.org/2000/svg"
 width="600.000000pt" height="700.000000pt" viewBox="0 0 600.000000 700.000000"
 preserveAspectRatio="xMidYMid meet">

<g transform="translate(0.000000,700.000000) scale(0.100000,-0.100000)"
fill="#000000" stroke="none">
<path d="M4860 3459 c-30 -5 -93 -27 -138 -50 -186 -91 -292 -262 -292 -469 0
-147 51 -271 155 -375 239 -239 631 -196 817 90 161 246 79 589 -176 739 -99
58 -250 85 -366 65z m177 -254 c60 -18 135 -81 165 -139 33 -63 36 -168 8
-234 -93 -217 -395 -230 -499 -21 -49 99 -41 208 22 290 42 55 73 77 138 100
66 23 101 23 166 4z"/>
<path d="M3331 1942 c-160 -291 -291 -531 -291 -535 0 -4 263 -7 585 -7 322 0
585 2 585 4 0 2 -93 171 -206 377 -114 206 -246 445 -294 532 l-87 158 -292
-529z m406 -122 c56 -101 100 -188 97 -192 -6 -10 -424 -11 -424 0 0 6 94 183
176 329 16 29 34 51 39 50 6 -2 56 -86 112 -187z"/>
</g>
</svg>
