<?xml version="1.0" encoding="UTF-8" standalone="no"?>
<!-- Created with Inkscape (http://www.inkscape.org/) -->

<svg
   xmlns:dc="http://purl.org/dc/elements/1.1/"
   xmlns:cc="http://creativecommons.org/ns#"
   xmlns:rdf="http://www.w3.org/1999/02/22-rdf-syntax-ns#"
   xmlns:svg="http://www.w3.org/2000/svg"
   xmlns="http://www.w3.org/2000/svg"
   xmlns:sodipodi="http://sodipodi.sourceforge.net/DTD/sodipodi-0.dtd"
   xmlns:inkscape="http://www.inkscape.org/namespaces/inkscape"
   version="1.1"
   id="svg116487"
   xml:space="preserve"
   width="800"
   height="800"
   viewBox="0 0 800 800"
   sodipodi:docname="tribal-shape-vector-3-publicdomainvectors.org.svg"
   inkscape:version="0.92.4 (5da689c313, 2019-01-14)"><metadata
     id="metadata116493"><rdf:RDF><cc:Work
         rdf:about=""><dc:format>image/svg+xml</dc:format><dc:type
           rdf:resource="http://purl.org/dc/dcmitype/StillImage" /><dc:title></dc:title></cc:Work></rdf:RDF></metadata><defs
     id="defs116491"><clipPath
       clipPathUnits="userSpaceOnUse"
       id="clipPath116503"><path
         d="M 0,600 H 600 V 0 H 0 Z"
         id="path116501"
         inkscape:connector-curvature="0" /></clipPath></defs><sodipodi:namedview
     pagecolor="#ffffff"
     bordercolor="#666666"
     borderopacity="1"
     objecttolerance="10"
     gridtolerance="10"
     guidetolerance="10"
     inkscape:pageopacity="0"
     inkscape:pageshadow="2"
     inkscape:window-width="797"
     inkscape:window-height="480"
     id="namedview116489"
     showgrid="false"
     inkscape:zoom="0.295"
     inkscape:cx="400"
     inkscape:cy="400"
     inkscape:window-x="0"
     inkscape:window-y="0"
     inkscape:window-maximized="0"
     inkscape:current-layer="g116495" /><g
     id="g116495"
     inkscape:groupmode="layer"
     inkscape:label="tribal-shape-vector-3-publicdomainvectors.org"
     transform="matrix(1.3333333,0,0,-1.3333333,0,800)"><g
       id="g116497"><g
         id="g116499"
         clip-path="url(#clipPath116503)"><path
           d="m 393.499,332.56 c -0.076,0.117 -0.191,0.204 -0.324,0.249 -0.17,0.049 -0.349,0.073 -0.527,0.066 -0.661,-0.031 -1.304,-0.203 -1.892,-0.503 -1.259,-0.393 -2.523,-0.772 -3.789,-1.134 l 7.176,10e-4 c -0.218,0.438 -0.432,0.878 -0.644,1.321 m -72.027,6.536 c 1.466,-1.747 2.755,-3.636 3.851,-5.638 0.494,-0.742 0.984,-1.486 1.474,-2.232 l 16.703,0.004 c -0.745,0.905 -1.438,1.852 -2.078,2.837 -1.393,1.709 -2.711,3.48 -3.947,5.306 -0.151,0.18 -0.299,0.357 -0.453,0.534 -0.464,0.38 -1.095,0.488 -1.662,0.287 -3.738,-0.526 -7.504,-0.849 -11.278,-0.968 -0.579,0.135 -1.162,0.258 -1.747,0.369 0.197,0.562 0.382,1.128 0.554,1.697 1.989,3.209 4.151,6.31 6.474,9.286 0.457,0.39 0.678,0.99 0.581,1.583 -0.075,0.22 -0.155,0.439 -0.237,0.657 -0.962,1.985 -1.837,4.011 -2.623,6.071 -0.532,1.047 -1.007,2.122 -1.418,3.219 l -8.35,-14.468 c 0.402,-0.796 0.801,-1.592 1.197,-2.391 1.186,-1.949 2.178,-4.01 2.959,-6.153 m 36.794,27.316 c -0.165,-0.15 -0.212,-0.39 -0.121,-0.591 0.113,-0.226 0.256,-0.433 0.427,-0.618 0.706,-1.154 1.439,-2.29 2.198,-3.41 0.589,-1.216 1.208,-2.418 1.854,-3.606 0.076,-0.241 0.184,-0.468 0.323,-0.68 0.129,-0.179 0.36,-0.257 0.572,-0.19 0.686,0.293 1.285,0.765 1.729,1.365 3.064,3.011 5.681,6.442 7.773,10.188 -4.292,0.059 -8.569,-0.494 -12.708,-1.641 -0.743,-0.087 -1.449,-0.369 -2.047,-0.817 m -7.997,36.058 c 0.553,0.358 1.025,0.831 1.38,1.387 0.094,0.151 0.164,0.317 0.206,0.489 0.028,0.138 0.01,0.281 -0.052,0.407 -0.279,0.404 -0.552,0.81 -0.823,1.217 l -3.588,-6.216 c 0.949,0.916 1.907,1.822 2.877,2.716 m -13.234,-20.662 -5.053,-8.756 c 1.805,-2.952 3.657,-5.877 5.549,-8.775 2.619,-3.754 5.218,-7.521 7.799,-11.302 0.015,-0.024 0.028,-0.05 0.043,-0.074 0.014,-0.026 0.028,-0.049 0.043,-0.075 1.985,-4.124 3.95,-8.258 5.892,-12.403 1.565,-3.087 3.173,-6.152 4.828,-9.191 l 10.109,10e-4 c 0.976,0.195 1.949,0.392 2.924,0.595 4.449,1.068 8.907,2.111 13.369,3.133 4.77,0.736 9.507,1.662 14.203,2.776 0.153,0.026 0.297,0.085 0.423,0.174 0.132,0.136 0.191,0.328 0.156,0.515 -0.061,0.455 -0.147,0.907 -0.259,1.352 -0.918,2.636 -1.373,5.412 -1.344,8.204 0.061,0.796 0.026,1.596 -0.107,2.382 -0.195,0.397 -0.603,0.643 -1.046,0.632 -1.661,-0.182 -3.315,-0.4 -4.964,-0.656 -8.112,-1.513 -16.256,-2.836 -24.431,-3.969 -2.648,4.458 -5.231,8.955 -7.747,13.489 -2.67,4.445 -5.275,8.929 -7.814,13.452 5.067,6.514 10.284,12.908 15.647,19.178 1.046,1.302 2.061,2.625 3.049,3.972 0.23,0.377 0.221,0.853 -0.024,1.222 -0.615,0.508 -1.292,0.939 -2.01,1.282 -2.435,1.37 -4.611,3.152 -6.435,5.264 -0.331,0.319 -0.68,0.62 -1.042,0.901 -0.145,0.123 -0.34,0.169 -0.524,0.122 -0.14,-0.065 -0.263,-0.16 -0.363,-0.28 -3.311,-3.511 -6.481,-7.152 -9.503,-10.916 -3.113,-3.354 -6.244,-6.692 -9.392,-10.014 -0.663,-0.743 -1.321,-1.488 -1.976,-2.235 m 37.706,-27.694 c -0.191,-0.722 -0.187,-1.484 0.012,-2.204 0.08,-0.207 0.286,-0.34 0.505,-0.328 0.252,0.022 0.499,0.081 0.734,0.172 2.668,0.472 5.311,1.07 7.923,1.789 1.862,0.091 3.697,0.489 5.431,1.179 0.427,0.148 0.746,0.51 0.837,0.953 0.094,1.123 0.297,2.235 0.604,3.322 1.096,3.29 2.451,6.489 4.051,9.565 1.877,4.06 4.224,7.886 6.993,11.397 2.314,3.402 4.791,6.687 7.429,9.843 -4.051,-0.709 -8.135,-1.215 -12.238,-1.518 -4.424,-0.643 -8.912,-0.765 -13.366,-0.363 -3.465,0.151 -6.912,0.576 -10.309,1.27 -1.096,0.279 -2.159,0.659 -3.18,1.138 -0.43,0.142 -0.902,0.047 -1.243,-0.25 -1.464,-1.155 -2.726,-2.546 -3.736,-4.113 -1.927,-1.903 -3.766,-3.896 -5.508,-5.97 -0.198,-0.159 -0.369,-0.343 -0.516,-0.549 -0.12,-0.184 -0.108,-0.429 0.032,-0.602 0.525,-0.532 1.182,-0.916 1.903,-1.112 4.149,-1.853 8.554,-3.069 13.067,-3.61 2.138,-0.365 4.284,-0.656 6.438,-0.873 -0.887,-1.974 -1.708,-3.98 -2.46,-6.013 -1.788,-4.179 -2.934,-8.602 -3.403,-13.123 m 65.297,50.24 c 0.023,-0.175 0.123,-0.331 0.275,-0.423 0.152,-0.092 0.337,-0.108 0.502,-0.043 4.819,1.893 9.477,4.17 13.935,6.805 3,1.423 5.91,3.027 8.718,4.801 4.237,2.475 8.21,5.376 11.853,8.66 2.563,1.889 4.962,3.988 7.174,6.277 0.42,0.79 0.833,1.584 1.235,2.382 -0.893,0.05 -1.786,0.09 -2.68,0.121 -3.089,-0.771 -6.107,-1.801 -9.023,-3.077 -4.666,-1.516 -9.163,-3.506 -13.423,-5.94 -2.941,-1.545 -5.783,-3.264 -8.516,-5.152 -4.509,-2.544 -8.81,-5.443 -12.859,-8.67 -0.137,-0.111 -0.215,-0.28 -0.211,-0.457 0.003,-0.177 0.088,-0.343 0.229,-0.449 0.094,-0.041 0.198,-0.051 0.298,-0.029 2.955,0.736 5.917,1.44 8.889,2.111 -2.067,-2.237 -4.158,-4.453 -6.271,-6.644 -0.069,-0.075 -0.112,-0.17 -0.125,-0.273 m -97.566,-56.599 c -0.423,0.913 -0.838,1.831 -1.245,2.751 -0.594,0.813 -1.181,1.631 -1.76,2.453 -0.236,0.341 -0.696,0.439 -1.05,0.223 -2.729,-2.653 -5.229,-5.535 -7.464,-8.61 3.782,0.401 7.525,1.123 11.188,2.163 0.365,0.199 0.509,0.646 0.331,1.02 m 24.182,56.454 c 4.01,-3.48 8.912,-5.771 14.154,-6.621 0.392,0.006 0.763,0.172 1.032,0.457 2.815,2.714 5.619,5.443 8.406,8.186 0.53,0.528 1.096,1.02 1.695,1.47 1.663,1.359 3.395,2.633 5.188,3.816 0.708,0.38 1.377,0.829 1.998,1.34 0.205,0.167 0.389,0.36 0.545,0.572 0.03,0.055 0.046,0.116 0.046,0.179 0,0.042 -0.017,0.082 -0.046,0.113 -0.075,0.08 -0.183,0.119 -0.29,0.11 -0.278,-0.018 -0.554,-0.062 -0.823,-0.132 -2.347,-0.54 -4.758,-0.739 -7.161,-0.592 -2.717,0.194 -5.405,0.679 -8.017,1.447 -3.208,0.91 -6.192,2.471 -8.767,4.587 -0.868,1.219 -1.699,2.462 -2.493,3.73 -0.914,3.183 -0.358,6.608 1.514,9.339 1.651,2.91 3.808,5.499 6.372,7.648 2.758,2.757 5.915,5.082 9.364,6.898 1.321,0.563 2.654,1.098 3.998,1.607 0.508,0.184 1,0.406 1.479,0.66 0.032,0.026 0.04,0.07 0.018,0.103 -0.031,0.046 -0.082,0.075 -0.138,0.076 -6.764,-0.709 -13.423,-2.193 -19.849,-4.422 -0.624,-0.207 -1.247,-0.418 -1.867,-0.635 l -15.765,-27.314 c 2.148,-4.858 5.36,-9.172 9.407,-12.622 m 73.049,-71.662 c 5.141,4.452 9.755,9.479 13.749,14.984 0.027,0.048 0.027,0.106 0.003,0.157 -0.018,0.036 -0.059,0.051 -0.099,0.035 -0.458,-0.286 -0.897,-0.603 -1.311,-0.951 -1.111,-0.909 -2.241,-1.796 -3.388,-2.659 -3.299,-2.081 -6.889,-3.654 -10.654,-4.665 -3.144,-1.146 -6.466,-1.721 -9.81,-1.697 -3.301,-0.258 -6.546,0.973 -8.845,3.355 -0.702,1.321 -1.364,2.663 -1.987,4.023 -0.545,3.288 -0.406,6.653 0.408,9.886 0.639,2.647 1.564,5.218 2.753,7.669 1.074,2.154 2.452,4.143 4.092,5.905 0.194,0.199 0.37,0.416 0.525,0.647 0.062,0.089 0.081,0.202 0.049,0.307 -0.011,0.04 -0.039,0.075 -0.075,0.096 -0.053,0.032 -0.115,0.049 -0.178,0.049 -0.261,-0.028 -0.52,-0.091 -0.767,-0.186 -0.753,-0.282 -1.477,-0.636 -2.16,-1.06 -1.919,-0.963 -3.888,-1.826 -5.898,-2.588 -0.688,-0.293 -1.396,-0.538 -2.12,-0.734 -3.767,-1.043 -7.533,-2.108 -11.292,-3.191 -0.38,-0.089 -0.71,-0.328 -0.911,-0.664 -1.884,-4.965 -2.347,-10.356 -1.335,-15.57 0.964,-5.228 3.096,-10.167 6.232,-14.455 l 31.536,0.006 c 0.498,0.43 0.991,0.863 1.483,1.301 m -18.015,17.693 c 0.004,-0.288 0.037,-0.574 0.102,-0.855 0.023,-0.101 0.094,-0.184 0.19,-0.223 0.121,-0.037 0.249,-0.045 0.372,-0.02 0.786,0.187 1.56,0.43 2.315,0.727 4.161,1.649 8.151,3.708 11.906,6.146 4.473,2.412 8.741,5.181 12.769,8.28 3.735,2.683 7.376,5.494 10.915,8.43 4.651,4.092 9.252,8.242 13.8,12.45 4.052,3.825 7.894,7.862 11.514,12.098 3.34,3.919 6.374,8.087 9.082,12.467 0.076,0.145 0.122,0.305 0.133,0.468 -10e-4,0.018 -0.012,0.033 -0.026,0.041 -0.018,0.007 -0.036,0.007 -0.053,-0.002 l -0.217,-0.193 c -1.907,-2.427 -3.964,-4.734 -6.157,-6.905 -1.936,-1.975 -3.936,-3.885 -5.998,-5.729 -2.324,-2.037 -4.693,-4.023 -7.103,-5.959 -2.008,-1.491 -3.932,-3.092 -5.762,-4.798 -5.163,-3.813 -10.51,-7.369 -16.022,-10.656 -6.041,-3.748 -12.314,-7.105 -18.782,-10.049 -2.074,-0.963 -4.164,-1.888 -6.271,-2.774 -1.45,-0.408 -2.806,-1.093 -3.995,-2.016 -2.153,-3.215 -3.111,-7.08 -2.712,-10.928 m 34.42,88.353 c -7.509,-2.364 -14.883,-5.135 -22.089,-8.307 -2.853,-1.375 -5.677,-2.806 -8.472,-4.294 -5.403,-2.837 -10.553,-6.128 -15.398,-9.837 -6.428,-4.392 -12.55,-9.217 -18.323,-14.441 -1.736,-1.571 -3.374,-3.248 -4.903,-5.021 -1.095,-0.886 -2.117,-1.857 -3.063,-2.904 -0.102,-0.116 -0.17,-0.256 -0.201,-0.408 -0.01,-0.202 0.086,-0.395 0.256,-0.505 0.614,-0.378 1.301,-0.623 2.017,-0.718 3.405,-0.681 6.876,-0.96 10.345,-0.829 1.402,-0.125 2.809,-0.168 4.214,-0.129 1.106,-0.044 2.21,0.071 3.282,0.339 0.197,0.072 0.373,0.196 0.505,0.359 l 0.197,0.275 8.031,7.342 c 5.948,4.857 12.054,9.521 18.304,13.983 1.732,1.686 3.699,3.112 5.839,4.231 4.489,2.671 9.023,5.266 13.599,7.784 2.02,1.064 4.056,2.095 6.108,3.093 7.149,3.069 14.412,5.865 21.773,8.383 7.095,1.942 14.261,3.609 21.484,4.998 -4.812,-5.563 -9.838,-10.938 -15.065,-16.112 -5.86,-5.118 -11.911,-10.012 -18.141,-14.671 -1.89,-1.278 -3.801,-2.527 -5.732,-3.744 -4.466,-2.707 -8.98,-5.337 -13.536,-7.891 -2.04,-1.294 -4.258,-2.285 -6.583,-2.942 -6.99,-3.186 -14.08,-6.143 -21.259,-8.869 l -10.373,-3.288 -0.337,-0.032 c -0.207,-0.034 -0.402,-0.124 -0.564,-0.259 -0.766,-0.794 -1.418,-1.693 -1.933,-2.671 -0.736,-1.2 -1.401,-2.44 -1.994,-3.717 -1.847,-2.939 -3.339,-6.085 -4.451,-9.375 -0.275,-0.667 -0.407,-1.385 -0.386,-2.105 0.011,-0.202 0.13,-0.383 0.31,-0.474 0.147,-0.049 0.302,-0.061 0.454,-0.03 1.378,0.295 2.73,0.697 4.044,1.202 2.302,0.439 4.571,1.019 6.801,1.737 7.41,2.391 14.648,5.282 21.665,8.656 5.633,2.343 11.058,5.16 16.214,8.422 2.687,1.677 5.336,3.408 7.953,5.193 6.347,4.656 12.434,9.659 18.233,14.982 3.171,2.812 6.173,5.811 8.987,8.98 8.809,9.465 16.518,19.897 22.977,31.096 0.039,0.062 0.076,0.123 0.113,0.185 l -0.215,-0.006 c -12.929,10e-4 -25.817,-1.462 -38.418,-4.364 -4.152,-0.854 -8.249,-1.954 -12.269,-3.297 m -75.525,-17.135 c -0.083,-0.095 -0.141,-0.209 -0.168,-0.332 -0.014,-0.103 0.022,-0.206 0.099,-0.275 0.21,-0.197 0.441,-0.369 0.688,-0.517 3.135,-2.268 6.961,-3.369 10.821,-3.112 1.394,0.57 2.665,1.402 3.743,2.453 1.821,1.382 3.666,2.732 5.537,4.045 5.783,4.134 11.824,7.89 18.09,11.249 5.6,3.132 11.353,5.987 17.236,8.553 2.392,0.734 4.74,1.6 7.036,2.594 2.881,1.12 5.784,2.179 8.71,3.175 2.628,0.864 5.282,1.644 7.961,2.334 2.976,0.815 6.002,1.443 9.058,1.881 l 0.274,0.092 c 0.016,0.009 0.027,0.026 0.027,0.045 0.002,0.017 -0.007,0.034 -0.021,0.044 -0.147,0.072 -0.308,0.111 -0.472,0.117 -5.147,-0.156 -10.273,-0.702 -15.337,-1.637 -5.477,-1.018 -10.894,-2.329 -16.232,-3.928 -5.917,-1.837 -11.812,-3.748 -17.682,-5.731 -4.31,-1.6 -8.565,-3.349 -12.757,-5.244 -4.694,-1.939 -9.226,-4.254 -13.552,-6.921 -3.987,-2.035 -7.764,-4.462 -11.272,-7.243 -0.635,-0.505 -1.23,-1.054 -1.787,-1.642 m -113.74,-15.979 c -0.083,0.157 -0.193,0.3 -0.321,0.423 -0.105,0.092 -0.238,0.149 -0.378,0.158 -0.489,-0.039 -0.977,-0.074 -1.465,-0.104 l 3.589,-6.215 c -0.32,1.279 -0.625,2.562 -0.914,3.848 -0.034,0.659 -0.207,1.304 -0.511,1.89 m 82.293,0.438 c -0.128,-0.124 -0.239,-0.267 -0.322,-0.424 -0.303,-0.586 -0.475,-1.23 -0.509,-1.889 -0.29,-1.287 -0.593,-2.57 -0.912,-3.849 l 3.586,6.215 c -0.489,0.03 -0.978,0.065 -1.466,0.103 -0.14,-0.008 -0.272,-0.064 -0.377,-0.156 M 274.04,418.65 c 5.019,1.732 9.455,4.831 12.812,8.947 0.19,0.341 0.232,0.746 0.119,1.121 -0.942,3.795 -1.904,7.587 -2.886,11.374 -0.192,0.723 -0.335,1.459 -0.425,2.202 -0.346,2.12 -0.583,4.258 -0.711,6.401 0.025,0.805 -0.029,1.607 -0.162,2.401 -0.042,0.261 -0.117,0.516 -0.223,0.758 -0.032,0.054 -0.077,0.098 -0.131,0.128 -0.037,0.023 -0.08,0.027 -0.121,0.018 -0.107,-0.026 -0.194,-0.099 -0.24,-0.197 -0.124,-0.25 -0.224,-0.511 -0.298,-0.779 -0.706,-2.301 -1.739,-4.488 -3.067,-6.495 -1.526,-2.257 -3.291,-4.344 -5.262,-6.222 -2.393,-2.322 -5.237,-4.126 -8.356,-5.298 -1.489,-0.142 -2.982,-0.24 -4.477,-0.295 -3.213,0.801 -5.901,2.995 -7.331,5.982 -1.694,2.884 -2.858,6.048 -3.438,9.342 -1.008,3.766 -1.443,7.662 -1.291,11.558 0.173,1.426 0.377,2.848 0.607,4.265 0.095,0.533 0.149,1.071 0.168,1.612 -0.006,0.04 -0.04,0.069 -0.081,0.067 -0.055,-0.004 -0.105,-0.034 -0.134,-0.082 -2.767,-6.212 -4.812,-12.721 -6.094,-19.399 -0.134,-0.646 -0.262,-1.289 -0.385,-1.936 l 15.773,-27.309 c 5.28,-0.57 10.624,0.056 15.634,1.836 m -8.502,23.055 c 0.121,-0.802 0.297,-1.593 0.528,-2.369 0.042,-0.119 0.112,-0.226 0.204,-0.311 0.082,-0.063 0.189,-0.084 0.288,-0.053 0.275,0.085 0.541,0.199 0.793,0.34 3.53,1.579 6.398,4.343 8.105,7.815 0.203,1.491 0.118,3.008 -0.254,4.467 -0.286,2.268 -0.532,4.541 -0.735,6.818 -0.688,7.074 -0.92,14.185 -0.696,21.291 0.088,6.416 0.492,12.824 1.21,19.203 0.561,2.438 0.986,4.905 1.272,7.39 0.47,3.055 1.005,6.099 1.606,9.131 0.565,2.708 1.218,5.397 1.959,8.06 0.782,2.985 1.751,5.921 2.899,8.785 l 0.058,0.285 c 0,0.018 -0.009,0.036 -0.025,0.046 -0.014,0.01 -0.033,0.011 -0.048,0.003 -0.136,-0.091 -0.251,-0.211 -0.338,-0.35 -2.438,-4.535 -4.53,-9.248 -6.251,-14.1 -1.857,-5.254 -3.43,-10.6 -4.715,-16.024 -1.367,-6.041 -2.66,-12.102 -3.877,-18.176 -0.77,-4.534 -1.383,-9.093 -1.836,-13.669 -0.669,-5.037 -0.931,-10.119 -0.784,-15.198 -0.231,-4.471 -0.017,-8.955 0.637,-13.384 m 19.904,20.586 c 0.589,-7.764 1.707,-15.478 3.344,-23.09 0.494,-2.289 1.128,-4.545 1.898,-6.757 0.221,-1.39 0.549,-2.762 0.983,-4.103 0.05,-0.148 0.139,-0.276 0.254,-0.379 0.17,-0.109 0.385,-0.122 0.565,-0.031 0.634,0.343 1.19,0.816 1.63,1.387 2.293,2.61 4.269,5.476 5.89,8.545 0.809,1.153 1.55,2.349 2.22,3.587 0.589,0.935 1.043,1.948 1.346,3.01 0.035,0.207 0.017,0.421 -0.058,0.618 l -0.141,0.307 -2.342,10.626 c -1.231,7.58 -2.218,15.199 -2.956,22.843 -0.596,2.343 -0.847,4.759 -0.747,7.174 -0.067,5.222 -0.048,10.447 0.061,15.668 0.088,2.281 0.212,4.559 0.373,6.836 0.918,7.725 2.129,15.413 3.628,23.047 1.865,7.115 4.005,14.154 6.414,21.105 2.411,-6.949 4.553,-13.989 6.42,-21.102 1.503,-7.635 2.714,-15.321 3.635,-23.046 0.162,-2.277 0.287,-4.556 0.376,-6.836 0.111,-5.222 0.131,-10.446 0.066,-15.669 0.101,-2.414 -0.151,-4.829 -0.744,-7.173 -0.736,-7.645 -1.719,-15.263 -2.948,-22.844 l -2.339,-10.628 -0.141,-0.307 c -0.073,-0.196 -0.094,-0.41 -0.057,-0.618 0.304,-1.061 0.757,-2.074 1.346,-3.009 0.671,-1.238 1.413,-2.434 2.221,-3.586 1.623,-3.069 3.6,-5.934 5.894,-8.543 0.441,-0.571 0.995,-1.044 1.631,-1.387 0.18,-0.091 0.396,-0.078 0.565,0.032 0.116,0.102 0.203,0.231 0.252,0.379 0.434,1.34 0.763,2.713 0.983,4.103 0.77,2.213 1.402,4.468 1.895,6.758 1.634,7.613 2.749,15.327 3.337,23.09 0.788,6.05 1.059,12.157 0.813,18.253 -0.11,3.166 -0.283,6.326 -0.52,9.485 -0.859,7.824 -2.148,15.597 -3.859,23.28 -0.85,4.154 -1.946,8.252 -3.284,12.275 -3.79,12.36 -8.972,24.252 -15.441,35.446 -0.035,0.063 -0.068,0.126 -0.104,0.189 l -0.103,-0.189 c -6.466,-11.196 -11.64,-23.089 -15.428,-35.452 -1.337,-4.022 -2.433,-8.121 -3.28,-12.274 -1.708,-7.686 -2.994,-15.457 -3.851,-23.284 -0.236,-3.157 -0.409,-6.318 -0.517,-9.484 -0.244,-6.096 0.029,-12.203 0.82,-18.252 m 26.117,-93.608 c 0.008,0.415 -0.307,0.765 -0.719,0.797 -1.003,0.091 -2.005,0.189 -3.005,0.297 -1.001,-0.109 -2.003,-0.207 -3.005,-0.298 -0.413,-0.032 -0.727,-0.382 -0.717,-0.797 0.932,-3.691 2.179,-7.295 3.724,-10.77 1.544,3.476 2.789,7.079 3.722,10.771 m -3.72,-21.719 c 2.245,0.396 4.526,0.568 6.807,0.516 0.89,0.058 1.78,0.109 2.67,0.16 l 8.35,14.468 c -1.156,-0.193 -2.324,-0.32 -3.496,-0.381 -2.179,-0.352 -4.37,-0.608 -6.569,-0.767 -0.231,-0.038 -0.459,-0.079 -0.689,-0.123 -0.563,-0.213 -0.971,-0.705 -1.08,-1.296 -1.414,-3.501 -3.017,-6.924 -4.8,-10.251 -0.407,-0.435 -0.805,-0.878 -1.193,-1.329 -0.389,0.451 -0.786,0.895 -1.193,1.328 -1.787,3.327 -3.389,6.75 -4.806,10.25 -0.109,0.591 -0.518,1.083 -1.079,1.294 -0.229,0.045 -0.457,0.086 -0.689,0.125 -2.2,0.158 -4.392,0.413 -6.568,0.763 -1.173,0.062 -2.341,0.188 -3.498,0.381 l 8.356,-14.465 c 0.889,-0.05 1.779,-0.103 2.669,-0.159 2.282,0.052 4.563,-0.119 6.808,-0.514 m 0.002,-14.429 c -0.289,0.067 -0.578,0.131 -0.868,0.194 0,0 0.327,-0.568 0.868,-1.505 0.541,0.937 0.869,1.505 0.869,1.505 -0.29,-0.063 -0.58,-0.127 -0.869,-0.194 m 29.096,112.003 c -1.33,2.007 -2.362,4.194 -3.07,6.496 -0.074,0.267 -0.174,0.529 -0.297,0.778 -0.047,0.098 -0.133,0.17 -0.242,0.196 -0.04,0.011 -0.084,0.005 -0.119,-0.016 -0.055,-0.031 -0.101,-0.075 -0.132,-0.129 -0.105,-0.241 -0.181,-0.497 -0.223,-0.759 -0.131,-0.793 -0.186,-1.596 -0.161,-2.399 -0.127,-2.145 -0.364,-4.282 -0.709,-6.403 -0.088,-0.742 -0.232,-1.478 -0.423,-2.202 -0.981,-3.787 -1.942,-7.579 -2.883,-11.375 -0.114,-0.374 -0.07,-0.779 0.12,-1.121 3.358,-4.114 7.795,-7.211 12.815,-8.942 5.01,-1.779 10.354,-2.403 15.634,-1.831 l 15.764,27.315 c -0.123,0.646 -0.252,1.29 -0.385,1.935 -1.284,6.678 -3.333,13.187 -6.103,19.398 -0.027,0.048 -0.078,0.078 -0.131,0.082 -0.042,0.002 -0.077,-0.027 -0.081,-0.069 0.017,-0.54 0.072,-1.077 0.167,-1.611 0.232,-1.417 0.435,-2.838 0.609,-4.264 0.152,-3.896 -0.281,-7.792 -1.287,-11.559 -0.579,-3.294 -1.742,-6.459 -3.437,-9.343 -1.425,-2.988 -4.114,-5.183 -7.328,-5.984 -1.495,0.054 -2.987,0.152 -4.476,0.293 -3.12,1.171 -5.965,2.974 -8.36,5.295 -1.97,1.878 -3.735,3.964 -5.262,6.219 m -1.14,78.959 c 0.743,-2.664 1.397,-5.352 1.963,-8.059 0.602,-3.032 1.137,-6.077 1.609,-9.13 0.287,-2.486 0.713,-4.953 1.275,-7.391 0.72,-6.377 1.126,-12.786 1.217,-19.203 0.226,-7.106 -0.004,-14.216 -0.689,-21.29 -0.202,-2.278 -0.447,-4.55 -0.734,-6.818 -0.371,-1.46 -0.455,-2.977 -0.25,-4.468 1.708,-3.471 4.576,-6.234 8.109,-7.812 0.251,-0.14 0.516,-0.255 0.79,-0.339 0.099,-0.031 0.208,-0.011 0.289,0.053 0.093,0.085 0.162,0.192 0.203,0.31 0.232,0.776 0.407,1.568 0.527,2.369 0.653,4.43 0.866,8.914 0.632,13.385 0.146,5.079 -0.118,10.161 -0.787,15.197 -0.457,4.577 -1.07,9.135 -1.843,13.669 -1.217,6.074 -2.513,12.134 -3.883,18.176 -1.286,5.421 -2.861,10.768 -4.72,16.021 -1.723,4.851 -3.816,9.563 -6.256,14.099 -0.087,0.137 -0.201,0.257 -0.338,0.349 -0.015,0.008 -0.033,0.007 -0.049,-0.003 -0.015,-0.01 -0.023,-0.029 -0.024,-0.047 l 0.058,-0.284 c 1.148,-2.864 2.118,-5.799 2.901,-8.784 m -25.191,-41.222 c 0.165,-0.068 0.348,-0.06 0.504,0.026 0.155,0.085 0.262,0.238 0.289,0.414 0.77,5.119 1.128,10.292 1.075,15.47 0.267,3.31 0.334,6.633 0.2,9.95 -0.025,4.907 -0.551,9.798 -1.572,14.596 -0.355,3.163 -0.973,6.29 -1.85,9.351 -0.474,0.758 -0.956,1.512 -1.445,2.26 -0.491,-0.748 -0.972,-1.502 -1.447,-2.26 -0.874,-3.061 -1.491,-6.189 -1.844,-9.353 -1.022,-4.797 -1.545,-9.689 -1.569,-14.595 -0.132,-3.319 -0.063,-6.641 0.204,-9.951 -0.05,-5.178 0.31,-10.35 1.079,-15.47 0.028,-0.175 0.134,-0.328 0.29,-0.413 0.155,-0.086 0.341,-0.094 0.504,-0.026 0.081,0.061 0.144,0.146 0.174,0.243 0.84,2.928 1.712,5.846 2.615,8.754 0.907,-2.907 1.779,-5.825 2.62,-8.752 0.03,-0.098 0.091,-0.183 0.173,-0.244 m -20.214,-65.337 c -0.788,-0.811 -1.65,-1.542 -2.575,-2.187 -0.337,-0.3 -0.492,-0.757 -0.404,-1.201 0.268,-1.845 0.841,-3.634 1.694,-5.291 0.684,-2.622 1.49,-5.21 2.415,-7.757 0.039,-0.249 0.112,-0.49 0.218,-0.72 0.1,-0.197 0.317,-0.308 0.537,-0.273 0.723,0.187 1.384,0.565 1.914,1.092 3.68,2.667 6.936,5.874 9.661,9.51 1.385,1.669 2.71,3.383 3.974,5.139 1.267,-1.755 2.593,-3.469 3.978,-5.137 2.725,-3.636 5.983,-6.841 9.664,-9.508 0.53,-0.526 1.191,-0.904 1.915,-1.091 0.219,-0.035 0.437,0.078 0.535,0.274 0.107,0.229 0.18,0.471 0.219,0.72 0.925,2.547 1.729,5.135 2.413,7.758 0.852,1.657 1.425,3.446 1.692,5.291 0.088,0.444 -0.067,0.901 -0.405,1.201 -0.927,0.644 -1.786,1.376 -2.575,2.185 -2.302,2.594 -4.394,5.367 -6.258,8.29 -2.577,3.656 -4.718,7.601 -6.374,11.756 -1.79,3.703 -3.395,7.493 -4.809,11.354 -1.412,-3.861 -3.016,-7.652 -4.804,-11.356 -1.656,-4.155 -3.793,-8.101 -6.371,-11.757 -1.861,-2.924 -3.954,-5.698 -6.254,-8.292 m -8.817,-0.734 c -0.212,0.389 -0.629,0.619 -1.071,0.59 -0.748,-0.278 -1.458,-0.648 -2.115,-1.099 -2.404,-1.423 -5.035,-2.418 -7.777,-2.941 -0.441,-0.127 -0.875,-0.278 -1.301,-0.451 -0.179,-0.065 -0.315,-0.211 -0.368,-0.393 -0.013,-0.155 0.008,-0.308 0.062,-0.454 1.386,-4.623 2.953,-9.188 4.703,-13.688 1.348,-4.374 2.672,-8.754 3.975,-13.142 0.312,-0.945 0.628,-1.887 0.948,-2.828 l 5.056,-8.754 c 3.459,0.088 6.918,0.228 10.375,0.418 4.56,0.391 9.122,0.759 13.685,1.103 0.029,0 0.059,0 0.088,0 0.027,0 0.057,0 0.086,0 4.564,-0.342 9.127,-0.709 13.685,-1.098 3.457,-0.19 6.915,-0.328 10.376,-0.414 l 5.052,8.755 c 0.32,0.942 0.636,1.884 0.946,2.828 1.303,4.388 2.626,8.77 3.973,13.144 1.748,4.5 3.314,9.066 4.697,13.689 0.054,0.146 0.076,0.3 0.062,0.454 -0.053,0.182 -0.19,0.328 -0.368,0.393 -0.425,0.173 -0.86,0.324 -1.301,0.451 -2.743,0.522 -5.374,1.516 -7.777,2.938 -0.659,0.452 -1.37,0.821 -2.117,1.099 -0.441,0.029 -0.858,-0.201 -1.07,-0.591 -0.673,-1.527 -1.31,-3.069 -1.914,-4.626 -2.745,-7.781 -5.672,-15.498 -8.777,-23.143 -5.186,-0.065 -10.372,-0.052 -15.557,0.035 -5.184,-0.089 -10.369,-0.103 -15.555,-0.041 -3.108,7.645 -6.037,15.36 -8.786,23.14 -0.605,1.556 -1.243,3.099 -1.915,4.626 m 26.253,-9.71 c -2.195,-3.687 -3.856,-7.668 -4.932,-11.827 -0.296,-0.686 -0.406,-1.439 -0.317,-2.181 0.05,-0.217 0.232,-0.378 0.451,-0.4 0.253,-0.014 0.504,0.006 0.749,0.061 1.353,0.035 2.704,0.102 4.051,0.198 1.35,-0.096 2.7,-0.162 4.051,-0.196 0.247,-0.055 0.498,-0.076 0.751,-0.061 0.219,0.022 0.402,0.183 0.451,0.399 0.088,0.742 -0.021,1.496 -0.316,2.182 -1.079,4.158 -2.742,8.139 -4.939,11.825 m -166.22,-21.377 c 4.549,-4.205 9.151,-8.355 13.804,-12.446 3.54,-2.934 7.182,-5.744 10.919,-8.425 4.027,-3.097 8.298,-5.865 12.77,-8.277 3.757,-2.435 7.746,-4.492 11.909,-6.141 0.755,-0.296 1.529,-0.539 2.316,-0.726 0.123,-0.024 0.251,-0.018 0.37,0.02 0.097,0.039 0.168,0.123 0.191,0.224 0.064,0.279 0.098,0.567 0.101,0.855 0.398,3.848 -0.561,7.713 -2.714,10.927 -1.191,0.922 -2.546,1.606 -3.997,2.015 -2.106,0.884 -4.197,1.809 -6.271,2.772 -6.47,2.94 -12.745,6.295 -18.786,10.041 -5.514,3.285 -10.862,6.839 -16.026,10.652 -1.831,1.704 -3.756,3.305 -5.764,4.795 -2.41,1.935 -4.779,3.921 -7.105,5.956 -2.062,1.844 -4.064,3.753 -6,5.727 -2.195,2.17 -4.252,4.477 -6.159,6.904 l -0.217,0.192 c -0.016,0.009 -0.036,0.01 -0.053,0.002 -0.016,-0.007 -0.025,-0.023 -0.027,-0.041 0.011,-0.164 0.058,-0.323 0.134,-0.467 2.708,-4.379 5.745,-8.547 9.086,-12.464 3.62,-4.235 7.466,-8.271 11.519,-12.095 m 72.278,-23.885 c -0.202,0.335 -0.532,0.575 -0.912,0.664 -3.759,1.082 -7.524,2.145 -11.294,3.188 -0.722,0.195 -1.431,0.439 -2.119,0.733 -2.009,0.761 -3.978,1.624 -5.899,2.585 -0.684,0.423 -1.407,0.778 -2.161,1.059 -0.247,0.096 -0.505,0.157 -0.767,0.187 -0.063,-0.001 -0.124,-0.018 -0.178,-0.049 -0.036,-0.021 -0.063,-0.056 -0.074,-0.097 -0.032,-0.106 -0.013,-0.218 0.049,-0.307 0.155,-0.231 0.331,-0.448 0.526,-0.646 1.64,-1.762 3.018,-3.75 4.092,-5.904 1.191,-2.451 2.116,-5.022 2.757,-7.668 0.815,-3.233 0.955,-6.599 0.41,-9.886 -0.621,-1.361 -1.283,-2.702 -1.983,-4.024 -2.3,-2.382 -5.543,-3.614 -8.846,-3.358 -3.344,-0.024 -6.666,0.549 -9.809,1.694 -3.765,1.01 -7.358,2.581 -10.655,4.661 -1.148,0.862 -2.279,1.749 -3.391,2.659 -0.413,0.347 -0.852,0.664 -1.311,0.949 -0.038,0.016 -0.08,10e-4 -0.098,-0.035 -0.025,-0.05 -0.025,-0.108 0.003,-0.157 3.996,-5.503 8.611,-10.529 13.754,-14.979 0.491,-0.437 0.985,-0.871 1.483,-1.3 L 209,331.207 c 3.134,4.287 5.264,9.228 6.228,14.457 1.008,5.213 0.543,10.604 -1.342,15.568 m 70.841,-16.668 c -2.239,3.075 -4.737,5.956 -7.468,8.608 -0.355,0.216 -0.815,0.117 -1.05,-0.223 -0.579,-0.824 -1.166,-1.642 -1.76,-2.455 -0.406,-0.921 -0.821,-1.837 -1.244,-2.75 -0.178,-0.374 -0.033,-0.822 0.333,-1.021 3.662,-1.038 7.406,-1.76 11.189,-2.159 m -59.8,-12.221 c -0.587,0.3 -1.232,0.472 -1.891,0.503 -0.179,0.006 -0.357,-0.018 -0.528,-0.067 -0.133,-0.045 -0.248,-0.132 -0.325,-0.249 -0.211,-0.443 -0.425,-0.883 -0.643,-1.321 l 7.176,10e-4 c -1.267,0.362 -2.53,0.741 -3.789,1.133 m -46.517,76.801 c 0.141,0.107 0.225,0.272 0.229,0.45 0.004,0.177 -0.076,0.346 -0.214,0.456 -4.049,3.226 -8.349,6.123 -12.861,8.665 -2.732,1.888 -5.577,3.606 -8.517,5.149 -4.26,2.432 -8.759,4.422 -13.426,5.936 -2.916,1.275 -5.934,2.304 -9.023,3.075 -0.893,-0.033 -1.788,-0.072 -2.681,-0.123 0.405,-0.797 0.816,-1.592 1.236,-2.381 2.213,-2.289 4.614,-4.387 7.176,-6.275 3.646,-3.283 7.62,-6.183 11.857,-8.656 2.807,-1.773 5.718,-3.376 8.719,-4.798 4.458,-2.634 9.118,-4.908 13.937,-6.8 0.165,-0.065 0.351,-0.049 0.502,0.043 0.152,0.092 0.253,0.248 0.275,0.424 -0.012,0.101 -0.055,0.197 -0.123,0.272 -2.116,2.19 -4.208,4.405 -6.274,6.643 2.97,-0.671 5.934,-1.373 8.889,-2.109 0.1,-0.023 0.204,-0.012 0.299,0.029 m 85.445,-4.407 c -0.063,-0.125 -0.08,-0.268 -0.053,-0.406 0.043,-0.172 0.112,-0.338 0.207,-0.489 0.355,-0.557 0.827,-1.029 1.381,-1.387 0.969,-0.893 1.929,-1.799 2.877,-2.714 l -3.59,6.214 c -0.27,-0.408 -0.544,-0.814 -0.822,-1.218 m -41.581,43.596 c 1.343,-0.509 2.676,-1.043 3.998,-1.605 3.451,-1.815 6.608,-4.14 9.366,-6.894 2.564,-2.148 4.723,-4.738 6.374,-7.646 1.874,-2.731 2.431,-6.156 1.518,-9.34 -0.793,-1.267 -1.624,-2.511 -2.491,-3.729 -2.575,-2.117 -5.558,-3.68 -8.766,-4.592 -2.611,-0.769 -5.3,-1.254 -8.018,-1.449 -2.402,-0.147 -4.813,0.051 -7.159,0.589 -0.269,0.07 -0.546,0.114 -0.823,0.132 -0.108,0.01 -0.215,-0.03 -0.29,-0.11 -0.029,-0.03 -0.047,-0.071 -0.047,-0.113 0,-0.062 0.016,-0.124 0.047,-0.178 0.156,-0.212 0.339,-0.406 0.545,-0.572 0.621,-0.512 1.289,-0.96 1.997,-1.34 1.795,-1.182 3.527,-2.456 5.19,-3.815 0.599,-0.449 1.165,-0.941 1.696,-1.468 2.789,-2.743 5.593,-5.471 8.41,-8.183 0.267,-0.286 0.639,-0.451 1.031,-0.458 5.242,0.852 10.142,3.146 14.151,6.628 4.046,3.449 7.258,7.765 9.403,12.624 l -15.773,27.309 c -0.622,0.217 -1.244,0.427 -1.869,0.634 -6.426,2.226 -13.086,3.707 -19.85,4.414 -0.055,0 -0.106,-0.029 -0.138,-0.075 -0.021,-0.033 -0.014,-0.077 0.019,-0.103 0.477,-0.254 0.971,-0.475 1.479,-0.66 m -76.025,5.118 c 3.054,-0.438 6.08,-1.065 9.057,-1.88 2.678,-0.689 5.333,-1.467 7.961,-2.33 2.926,-0.995 5.831,-2.053 8.712,-3.172 2.295,-0.994 4.644,-1.858 7.036,-2.591 5.884,-2.565 11.637,-5.418 17.239,-8.548 6.267,-3.357 12.31,-7.111 18.094,-11.242 1.872,-1.313 3.717,-2.662 5.538,-4.043 1.079,-1.052 2.35,-1.883 3.744,-2.452 3.859,-0.256 7.686,0.846 10.819,3.117 0.248,0.147 0.48,0.319 0.69,0.515 0.076,0.07 0.112,0.173 0.098,0.277 -0.028,0.122 -0.086,0.236 -0.168,0.33 -0.556,0.589 -1.154,1.137 -1.787,1.642 -3.511,2.78 -7.287,5.205 -11.276,7.239 -4.325,2.667 -8.859,4.979 -13.555,6.917 -4.191,1.894 -8.446,3.641 -12.759,5.239 -5.869,1.982 -11.764,3.89 -17.682,5.725 -5.339,1.597 -10.756,2.907 -16.234,3.922 -5.063,0.934 -10.191,1.478 -15.338,1.632 -0.164,-0.006 -0.325,-0.045 -0.472,-0.118 -0.014,-0.009 -0.022,-0.026 -0.021,-0.044 0.001,-0.018 0.012,-0.034 0.028,-0.044 z m -14.516,-38.533 c 2.815,-3.168 5.817,-6.167 8.991,-8.977 5.8,-5.321 11.889,-10.321 18.238,-14.976 2.617,-1.783 5.268,-3.514 7.955,-5.19 5.158,-3.26 10.583,-6.076 16.217,-8.416 7.018,-3.372 14.258,-6.26 21.668,-8.649 2.23,-0.717 4.5,-1.296 6.801,-1.735 1.315,-0.504 2.668,-0.906 4.046,-1.2 0.151,-0.031 0.307,-0.019 0.454,0.03 0.18,0.091 0.298,0.272 0.31,0.474 0.02,0.721 -0.112,1.438 -0.387,2.104 -1.113,3.291 -2.607,6.435 -4.455,9.375 -0.593,1.277 -1.259,2.517 -1.996,3.715 -0.514,0.979 -1.166,1.878 -1.933,2.672 -0.163,0.134 -0.357,0.225 -0.565,0.257 l -0.336,0.033 -10.374,3.285 c -7.18,2.723 -14.272,5.678 -21.262,8.861 -2.326,0.656 -4.543,1.646 -6.584,2.941 -4.557,2.552 -9.071,5.18 -13.54,7.885 -1.93,1.217 -3.842,2.464 -5.733,3.742 -6.232,4.657 -12.284,9.548 -18.145,14.665 -5.23,5.172 -10.256,10.545 -15.071,16.106 7.223,-1.386 14.392,-3.05 21.485,-4.991 7.363,-2.515 14.626,-5.308 21.776,-8.374 2.053,-0.998 4.088,-2.028 6.109,-3.091 4.577,-2.516 9.112,-5.11 13.601,-7.779 2.142,-1.119 4.108,-2.544 5.841,-4.229 6.253,-4.461 12.359,-9.122 18.31,-13.977 l 8.034,-7.34 0.196,-0.275 c 0.132,-0.162 0.308,-0.286 0.506,-0.359 1.071,-0.266 2.175,-0.381 3.28,-0.338 1.407,-0.037 2.813,0.007 4.215,0.131 3.469,-0.13 6.94,0.151 10.345,0.833 0.716,0.095 1.402,0.34 2.017,0.718 0.169,0.111 0.266,0.304 0.254,0.506 -0.03,0.151 -0.098,0.291 -0.2,0.408 -0.945,1.046 -1.968,2.016 -3.064,2.902 -1.53,1.773 -3.168,3.448 -4.904,5.021 -5.775,5.221 -11.899,10.045 -18.329,14.434 -4.845,3.707 -9.998,6.996 -15.4,9.83 -2.796,1.489 -5.62,2.919 -8.474,4.292 -7.207,3.169 -14.582,5.939 -22.092,8.3 -4.02,1.341 -8.119,2.44 -12.27,3.291 -12.601,2.898 -25.49,4.358 -38.419,4.352 -0.072,0.002 -0.144,0.003 -0.216,0.005 0.037,-0.061 0.075,-0.123 0.112,-0.184 6.464,-11.198 14.176,-21.626 22.988,-31.088 m 162.475,-75.827 c 0.78,2.144 1.772,4.204 2.958,6.154 0.395,0.799 0.794,1.595 1.196,2.392 l -8.356,14.465 c -0.41,-1.098 -0.884,-2.172 -1.417,-3.219 -0.784,-2.061 -1.658,-4.088 -2.621,-6.071 -0.081,-0.219 -0.16,-0.438 -0.237,-0.658 -0.096,-0.594 0.124,-1.194 0.582,-1.584 2.324,-2.975 4.488,-6.075 6.478,-9.283 0.173,-0.57 0.357,-1.135 0.553,-1.697 -0.585,-0.111 -1.167,-0.235 -1.746,-0.37 -3.774,0.118 -7.54,0.44 -11.279,0.965 -0.567,0.201 -1.196,0.092 -1.661,-0.289 -0.153,-0.176 -0.303,-0.354 -0.451,-0.534 -1.237,-1.825 -2.555,-3.596 -3.946,-5.306 -0.64,-0.986 -1.334,-1.934 -2.078,-2.839 l 16.704,0.004 c 0.488,0.745 0.979,1.488 1.472,2.231 1.096,2.002 2.384,3.892 3.849,5.639 m -69.322,19.878 c 0.307,-1.088 0.511,-2.199 0.606,-3.323 0.092,-0.443 0.41,-0.805 0.838,-0.952 1.733,-0.689 3.568,-1.088 5.43,-1.178 2.613,-0.717 5.256,-1.314 7.925,-1.786 0.235,-0.09 0.48,-0.148 0.732,-0.172 0.22,-0.011 0.426,0.121 0.505,0.329 0.2,0.72 0.203,1.481 0.012,2.204 -0.47,4.521 -1.618,8.944 -3.406,13.121 -0.753,2.034 -1.575,4.038 -2.464,6.012 2.154,0.219 4.301,0.51 6.439,0.876 4.511,0.542 8.916,1.76 13.065,3.615 0.722,0.196 1.379,0.58 1.903,1.113 0.139,0.172 0.151,0.417 0.031,0.601 -0.146,0.206 -0.319,0.391 -0.515,0.549 -1.743,2.074 -3.583,4.065 -5.512,5.968 -1.009,1.568 -2.272,2.957 -3.736,4.112 -0.341,0.297 -0.814,0.391 -1.243,0.249 -1.021,-0.48 -2.085,-0.86 -3.18,-1.138 -3.397,-0.696 -6.845,-1.122 -10.309,-1.274 -4.454,-0.404 -8.941,-0.285 -13.367,0.358 -4.102,0.302 -8.186,0.807 -12.238,1.513 2.639,-3.155 5.119,-6.439 7.433,-9.839 2.771,-3.511 5.119,-7.337 6.998,-11.395 1.601,-3.075 2.958,-6.274 4.053,-9.563 m -5.946,-21.263 c 4.696,-1.112 9.434,-2.037 14.205,-2.772 4.461,-1.019 8.918,-2.061 13.369,-3.127 0.974,-0.203 1.948,-0.4 2.923,-0.593 l 10.11,0.002 c 1.654,3.039 3.262,6.104 4.824,9.193 1.942,4.144 3.905,8.279 5.888,12.404 0.015,0.025 0.03,0.049 0.044,0.075 0.014,0.024 0.029,0.05 0.043,0.075 2.579,3.782 5.176,7.549 7.794,11.304 1.892,2.898 3.742,5.824 5.547,8.777 l -5.056,8.753 c -0.656,0.747 -1.314,1.493 -1.977,2.235 -3.149,3.321 -6.281,6.658 -9.397,10.01 -3.023,3.764 -6.194,7.404 -9.507,10.914 -0.098,0.119 -0.222,0.214 -0.361,0.28 -0.185,0.046 -0.379,0 -0.524,-0.123 -0.363,-0.281 -0.712,-0.582 -1.042,-0.901 -1.823,-2.114 -4,-3.896 -6.433,-5.266 -0.719,-0.343 -1.395,-0.775 -2.01,-1.283 -0.245,-0.368 -0.255,-0.845 -0.023,-1.222 0.987,-1.346 2.003,-2.67 3.05,-3.971 5.366,-6.268 10.584,-12.661 15.653,-19.173 -2.538,-4.523 -5.141,-9.009 -7.81,-13.454 -2.513,-4.534 -5.094,-9.032 -7.74,-13.493 -8.176,1.131 -16.321,2.451 -24.433,3.962 -1.651,0.255 -3.305,0.473 -4.964,0.653 -0.443,0.012 -0.851,-0.234 -1.047,-0.631 -0.133,-0.787 -0.168,-1.587 -0.105,-2.381 0.03,-2.793 -0.424,-5.569 -1.341,-8.206 -0.112,-0.445 -0.198,-0.897 -0.26,-1.351 -0.034,-0.189 0.024,-0.38 0.156,-0.516 0.127,-0.088 0.271,-0.148 0.424,-0.174 m 23.708,31.141 c 2.096,-3.745 4.713,-7.174 7.777,-10.185 0.446,-0.599 1.043,-1.071 1.73,-1.364 0.213,-0.067 0.444,0.011 0.573,0.19 0.138,0.212 0.246,0.44 0.322,0.68 0.645,1.188 1.263,2.391 1.853,3.607 0.759,1.119 1.491,2.256 2.196,3.41 0.171,0.186 0.314,0.394 0.428,0.619 0.09,0.201 0.043,0.44 -0.121,0.59 -0.598,0.448 -1.305,0.73 -2.048,0.816 -4.139,1.147 -8.419,1.697 -12.71,1.637 m -20.464,-38.96 c 0.076,-0.117 0.191,-0.204 0.325,-0.249 0.17,-0.049 0.348,-0.073 0.527,-0.066 0.659,0.031 1.304,0.202 1.891,0.503 1.26,0.393 2.523,0.772 3.789,1.134 l -7.176,-10e-4 c 0.218,-0.438 0.433,-0.878 0.644,-1.321 M 159.576,223.854 c 7.509,2.362 14.883,5.136 22.089,8.308 2.852,1.373 5.676,2.804 8.471,4.294 5.403,2.837 10.553,6.127 15.397,9.836 6.429,4.393 12.552,9.217 18.324,14.439 1.736,1.574 3.373,3.25 4.903,5.022 1.095,0.888 2.118,1.858 3.063,2.904 0.101,0.117 0.17,0.256 0.2,0.409 0.012,0.202 -0.085,0.394 -0.255,0.505 -0.614,0.378 -1.301,0.623 -2.016,0.717 -3.406,0.682 -6.877,0.961 -10.346,0.831 -1.402,0.123 -2.809,0.167 -4.215,0.128 -1.105,0.044 -2.209,-0.071 -3.28,-0.34 -0.198,-0.071 -0.373,-0.195 -0.507,-0.358 l -0.196,-0.276 -8.031,-7.341 c -5.948,-4.857 -12.053,-9.52 -18.304,-13.982 -1.732,-1.687 -3.698,-3.113 -5.84,-4.232 -4.488,-2.672 -9.022,-5.268 -13.599,-7.783 -2.019,-1.066 -4.054,-2.095 -6.107,-3.095 -7.149,-3.068 -14.411,-5.862 -21.773,-8.381 -7.094,-1.943 -14.26,-3.61 -21.484,-4.998 4.813,5.562 9.838,10.938 15.065,16.11 5.86,5.118 11.911,10.014 18.141,14.673 1.891,1.277 3.801,2.527 5.731,3.743 4.467,2.706 8.981,5.336 13.537,7.89 2.04,1.296 4.258,2.285 6.584,2.943 6.989,3.185 14.079,6.142 21.259,8.869 l 10.373,3.289 0.336,0.031 c 0.208,0.034 0.402,0.123 0.564,0.259 0.767,0.795 1.418,1.693 1.933,2.671 0.736,1.2 1.401,2.44 1.994,3.716 1.847,2.94 3.34,6.085 4.452,9.376 0.274,0.667 0.406,1.384 0.386,2.106 -0.011,0.201 -0.13,0.382 -0.311,0.473 -0.146,0.049 -0.301,0.061 -0.454,0.031 -1.378,-0.296 -2.73,-0.698 -4.045,-1.203 -2.3,-0.439 -4.57,-1.02 -6.8,-1.738 -7.409,-2.39 -14.648,-5.281 -21.665,-8.655 -5.633,-2.343 -11.058,-5.16 -16.213,-8.422 -2.688,-1.678 -5.337,-3.408 -7.955,-5.191 -6.346,-4.658 -12.433,-9.661 -18.232,-14.984 -3.172,-2.811 -6.173,-5.809 -8.987,-8.98 -8.809,-9.464 -16.518,-19.896 -22.978,-31.096 -0.037,-0.06 -0.074,-0.121 -0.112,-0.184 l 0.215,0.003 c 12.93,0 25.818,1.464 38.418,4.366 4.152,0.853 8.249,1.954 12.27,3.297 m 89.453,34.382 c -4.01,3.481 -8.912,5.775 -14.154,6.624 -0.391,-0.008 -0.763,-0.172 -1.031,-0.459 -2.816,-2.713 -5.618,-5.441 -8.407,-8.185 -0.531,-0.528 -1.096,-1.02 -1.695,-1.47 -1.663,-1.359 -3.395,-2.634 -5.188,-3.816 -0.708,-0.38 -1.377,-0.828 -1.998,-1.34 -0.205,-0.168 -0.388,-0.361 -0.544,-0.572 -0.032,-0.055 -0.047,-0.116 -0.047,-0.178 0,-0.042 0.017,-0.082 0.047,-0.113 0.074,-0.081 0.181,-0.121 0.289,-0.11 0.278,0.017 0.554,0.061 0.824,0.132 2.346,0.539 4.757,0.738 7.159,0.59 2.717,-0.192 5.406,-0.678 8.018,-1.445 3.208,-0.913 6.193,-2.472 8.767,-4.587 0.868,-1.219 1.699,-2.462 2.493,-3.729 0.914,-3.184 0.358,-6.608 -1.515,-9.343 -1.65,-2.906 -3.808,-5.497 -6.371,-7.646 -2.757,-2.757 -5.914,-5.08 -9.364,-6.897 -1.321,-0.563 -2.655,-1.1 -3.998,-1.607 -0.508,-0.185 -1.001,-0.407 -1.478,-0.661 -0.033,-0.025 -0.041,-0.071 -0.019,-0.105 0.032,-0.046 0.082,-0.073 0.138,-0.075 6.764,0.711 13.424,2.193 19.849,4.424 0.624,0.205 1.247,0.417 1.868,0.633 l 15.764,27.316 c -2.147,4.856 -5.361,9.171 -9.407,12.619 m 8.388,37.799 c 0.165,0.15 0.213,0.39 0.122,0.591 -0.114,0.226 -0.258,0.433 -0.428,0.618 -0.706,1.154 -1.439,2.29 -2.197,3.41 -0.59,1.216 -1.208,2.418 -1.855,3.606 -0.076,0.24 -0.184,0.469 -0.323,0.679 -0.129,0.179 -0.36,0.258 -0.57,0.191 -0.688,-0.294 -1.286,-0.765 -1.732,-1.366 -3.062,-3.01 -5.679,-6.441 -7.772,-10.188 4.291,-0.057 8.57,0.494 12.708,1.643 0.743,0.085 1.45,0.368 2.047,0.816 m -22.316,-55.046 c 0.082,0.095 0.14,0.208 0.168,0.331 0.013,0.104 -0.023,0.206 -0.099,0.278 -0.211,0.194 -0.441,0.369 -0.69,0.515 -3.133,2.269 -6.96,3.369 -10.82,3.112 -1.394,-0.569 -2.665,-1.403 -3.743,-2.454 -1.82,-1.381 -3.666,-2.729 -5.537,-4.044 -5.782,-4.132 -11.824,-7.89 -18.089,-11.248 -5.602,-3.133 -11.353,-5.987 -17.237,-8.553 -2.391,-0.734 -4.741,-1.602 -7.035,-2.594 -2.881,-1.121 -5.785,-2.181 -8.711,-3.176 -2.627,-0.864 -5.282,-1.644 -7.96,-2.334 -2.977,-0.815 -6.003,-1.442 -9.057,-1.881 l -0.275,-0.091 c -0.016,-0.009 -0.028,-0.026 -0.029,-0.045 -0.001,-0.019 0.007,-0.035 0.021,-0.044 0.148,-0.072 0.309,-0.114 0.473,-0.117 5.146,0.155 10.274,0.702 15.337,1.635 5.478,1.019 10.894,2.329 16.233,3.929 5.917,1.837 11.811,3.747 17.68,5.732 4.312,1.598 8.566,3.347 12.757,5.243 4.695,1.939 9.228,4.254 13.553,6.921 3.988,2.036 7.764,4.461 11.273,7.244 0.633,0.503 1.23,1.052 1.787,1.641 m -59.456,17.103 c -0.023,0.177 -0.123,0.332 -0.275,0.424 -0.152,0.091 -0.337,0.106 -0.503,0.044 -4.818,-1.894 -9.477,-4.17 -13.934,-6.806 -3.001,-1.424 -5.911,-3.027 -8.718,-4.802 -4.237,-2.473 -8.209,-5.374 -11.854,-8.659 -2.561,-1.889 -4.962,-3.988 -7.173,-6.277 -0.42,-0.791 -0.833,-1.583 -1.235,-2.382 0.893,-0.048 1.787,-0.09 2.681,-0.122 3.088,0.774 6.105,1.801 9.021,3.078 4.666,1.515 9.164,3.506 13.425,5.94 2.94,1.545 5.783,3.265 8.515,5.152 4.51,2.545 8.809,5.443 12.858,8.672 0.138,0.109 0.216,0.278 0.213,0.455 -0.003,0.177 -0.088,0.343 -0.229,0.448 -0.095,0.042 -0.199,0.053 -0.298,0.029 -2.955,-0.735 -5.918,-1.44 -8.889,-2.111 2.065,2.237 4.156,4.454 6.271,6.644 0.069,0.076 0.111,0.172 0.124,0.273 m 131.062,72.475 c 0.086,-0.283 0.175,-0.566 0.266,-0.848 0,0 0.327,0.568 0.868,1.505 -0.541,0.937 -0.868,1.505 -0.868,1.505 -0.092,-0.284 -0.18,-0.566 -0.267,-0.85 -0.203,-0.217 -0.404,-0.436 -0.602,-0.655 h 1.352 c -0.85,0 -1.352,-10e-4 -1.352,-10e-4 0.198,-0.221 0.399,-0.439 0.603,-0.656 m -41.292,-70.59 c -0.554,-0.359 -1.025,-0.831 -1.381,-1.386 -0.095,-0.153 -0.164,-0.319 -0.206,-0.49 -0.028,-0.137 -0.01,-0.282 0.053,-0.408 0.278,-0.402 0.552,-0.808 0.823,-1.217 l 3.587,6.216 c -0.948,-0.916 -1.907,-1.822 -2.876,-2.715 m 28.796,63.374 c -1.466,1.747 -2.754,3.636 -3.85,5.638 -0.495,0.741 -0.985,1.486 -1.474,2.232 l -16.704,-0.004 c 0.745,-0.905 1.439,-1.853 2.079,-2.837 1.392,-1.709 2.71,-3.481 3.947,-5.306 0.149,-0.18 0.299,-0.357 0.452,-0.533 0.465,-0.381 1.095,-0.489 1.662,-0.289 3.739,0.526 7.504,0.85 11.277,0.969 0.581,-0.135 1.163,-0.258 1.748,-0.369 -0.197,-0.562 -0.381,-1.128 -0.554,-1.698 -1.989,-3.209 -4.15,-6.309 -6.474,-9.284 -0.458,-0.391 -0.679,-0.991 -0.581,-1.584 0.076,-0.22 0.155,-0.44 0.237,-0.657 0.963,-1.985 1.837,-4.012 2.623,-6.071 0.533,-1.047 1.007,-2.121 1.418,-3.219 l 8.349,14.467 c -0.4,0.796 -0.8,1.593 -1.195,2.391 -1.187,1.95 -2.178,4.011 -2.96,6.154 m -15.564,-42.711 5.055,8.755 c -1.806,2.953 -3.657,5.876 -5.55,8.775 -2.619,3.753 -5.218,7.521 -7.798,11.302 -0.016,0.024 -0.029,0.05 -0.044,0.073 -0.014,0.027 -0.028,0.05 -0.043,0.076 -1.985,4.124 -3.95,8.258 -5.892,12.402 -1.564,3.088 -3.173,6.153 -4.828,9.192 l -10.109,-0.002 c -0.975,-0.194 -1.95,-0.391 -2.924,-0.594 -4.45,-1.067 -8.907,-2.112 -13.368,-3.133 -4.771,-0.736 -9.508,-1.662 -14.204,-2.776 -0.153,-0.026 -0.297,-0.085 -0.423,-0.174 -0.132,-0.136 -0.19,-0.328 -0.157,-0.515 0.063,-0.455 0.149,-0.907 0.261,-1.353 0.918,-2.635 1.373,-5.411 1.343,-8.203 -0.062,-0.796 -0.026,-1.596 0.106,-2.383 0.197,-0.396 0.605,-0.642 1.047,-0.631 1.66,0.181 3.314,0.4 4.964,0.655 8.112,1.514 16.257,2.837 24.432,3.971 2.648,-4.459 5.231,-8.957 7.746,-13.49 2.67,-4.446 5.275,-8.929 7.814,-13.452 -5.066,-6.513 -10.283,-12.908 -15.647,-19.178 -1.045,-1.302 -2.062,-2.625 -3.048,-3.973 -0.232,-0.376 -0.222,-0.853 0.023,-1.22 0.616,-0.51 1.291,-0.94 2.011,-1.284 2.433,-1.371 4.61,-3.151 6.435,-5.264 0.33,-0.317 0.678,-0.618 1.041,-0.9 0.146,-0.124 0.34,-0.17 0.524,-0.124 0.14,0.068 0.264,0.162 0.363,0.282 3.31,3.509 6.481,7.151 9.502,10.915 3.114,3.354 6.245,6.693 9.394,10.014 0.662,0.744 1.32,1.489 1.974,2.237 m -88.078,12.168 c 0.055,-0.032 0.116,-0.048 0.179,-0.05 0.261,0.03 0.52,0.092 0.768,0.186 0.752,0.283 1.476,0.637 2.158,1.061 1.921,0.963 3.89,1.825 5.899,2.588 0.688,0.294 1.396,0.538 2.119,0.732 3.769,1.046 7.534,2.11 11.292,3.193 0.381,0.088 0.71,0.329 0.912,0.664 1.883,4.966 2.347,10.356 1.336,15.57 -0.964,5.227 -3.097,10.167 -6.232,14.455 l -31.537,-0.006 c -0.498,-0.43 -0.992,-0.864 -1.483,-1.302 -5.141,-4.451 -9.754,-9.479 -13.749,-14.983 -0.027,-0.048 -0.027,-0.106 -0.002,-0.156 0.018,-0.037 0.06,-0.052 0.099,-0.036 0.458,0.285 0.896,0.603 1.31,0.951 1.112,0.909 2.241,1.795 3.388,2.659 3.298,2.081 6.89,3.653 10.655,4.665 3.142,1.146 6.464,1.721 9.809,1.697 3.301,0.258 6.546,-0.973 8.846,-3.355 0.701,-1.321 1.363,-2.662 1.985,-4.023 0.545,-3.287 0.408,-6.653 -0.406,-9.886 -0.641,-2.646 -1.564,-5.219 -2.754,-7.669 -1.074,-2.154 -2.452,-4.143 -4.091,-5.907 -0.195,-0.197 -0.371,-0.415 -0.525,-0.645 -0.063,-0.09 -0.082,-0.202 -0.049,-0.307 0.01,-0.041 0.037,-0.075 0.073,-0.096 m 82.642,21.884 c 0.423,-0.914 0.839,-1.831 1.246,-2.752 0.593,-0.812 1.18,-1.63 1.76,-2.453 0.234,-0.341 0.695,-0.439 1.05,-0.222 2.73,2.652 5.228,5.534 7.464,8.61 -3.783,-0.4 -7.526,-1.124 -11.188,-2.163 -0.365,-0.198 -0.51,-0.646 -0.332,-1.02 m -32.269,-6.359 c 0.191,0.723 0.187,1.484 -0.012,2.204 -0.08,0.207 -0.286,0.339 -0.506,0.328 -0.251,-0.023 -0.498,-0.081 -0.733,-0.172 -2.668,-0.473 -5.311,-1.069 -7.924,-1.789 -1.862,-0.091 -3.697,-0.489 -5.429,-1.179 -0.427,-0.148 -0.746,-0.511 -0.836,-0.953 -0.097,-1.125 -0.299,-2.235 -0.606,-3.323 -1.095,-3.289 -2.451,-6.488 -4.051,-9.564 -1.877,-4.06 -4.224,-7.885 -6.993,-11.398 -2.312,-3.401 -4.792,-6.686 -7.43,-9.841 4.052,0.708 8.137,1.213 12.238,1.517 4.426,0.644 8.912,0.766 13.367,0.363 3.464,-0.152 6.912,-0.576 10.309,-1.271 1.095,-0.278 2.16,-0.658 3.18,-1.138 0.43,-0.14 0.902,-0.047 1.244,0.249 1.463,1.157 2.725,2.548 3.734,4.114 1.929,1.905 3.767,3.896 5.51,5.97 0.196,0.158 0.369,0.344 0.515,0.55 0.12,0.186 0.108,0.428 -0.032,0.601 -0.524,0.534 -1.181,0.917 -1.903,1.113 -4.15,1.852 -8.555,3.07 -13.066,3.611 -2.138,0.364 -4.285,0.654 -6.438,0.871 0.887,1.975 1.708,3.98 2.46,6.014 1.786,4.179 2.933,8.603 3.402,13.123 m -46.947,3.873 c -0.004,0.288 -0.037,0.575 -0.102,0.856 -0.022,0.101 -0.094,0.184 -0.191,0.223 -0.12,0.038 -0.247,0.044 -0.37,0.02 -0.787,-0.187 -1.561,-0.431 -2.315,-0.727 -4.163,-1.649 -8.152,-3.707 -11.908,-6.145 -4.471,-2.413 -8.74,-5.183 -12.768,-8.281 -3.734,-2.682 -7.375,-5.495 -10.915,-8.43 -4.652,-4.092 -9.252,-8.243 -13.799,-12.451 -4.052,-3.825 -7.896,-7.861 -11.515,-12.096 -3.34,-3.919 -6.375,-8.089 -9.082,-12.469 -0.076,-0.145 -0.122,-0.305 -0.134,-0.468 0.002,-0.016 0.012,-0.031 0.027,-0.04 0.017,-0.009 0.037,-0.006 0.054,0.002 l 0.216,0.194 c 1.907,2.425 3.963,4.734 6.157,6.904 1.935,1.974 3.937,3.885 5.998,5.73 2.325,2.035 4.694,4.022 7.103,5.956 2.008,1.494 3.932,3.094 5.763,4.8 5.162,3.813 10.51,7.368 16.021,10.656 6.041,3.748 12.313,7.105 18.783,10.048 2.073,0.963 4.164,1.889 6.271,2.775 1.449,0.407 2.805,1.093 3.995,2.016 2.152,3.215 3.111,7.08 2.711,10.927 m 72.553,-55.676 c 0.128,0.123 0.237,0.266 0.321,0.423 0.303,0.588 0.477,1.232 0.509,1.89 0.29,1.287 0.594,2.57 0.913,3.849 l -3.587,-6.216 c 0.489,-0.03 0.977,-0.063 1.466,-0.103 0.14,0.008 0.272,0.065 0.378,0.157 m 38.527,-76.359 c -0.162,0.069 -0.346,0.06 -0.503,-0.025 -0.154,-0.086 -0.261,-0.24 -0.288,-0.414 -0.769,-5.118 -1.128,-10.293 -1.075,-15.469 -0.268,-3.311 -0.333,-6.634 -0.2,-9.95 0.024,-4.907 0.551,-9.796 1.573,-14.596 0.356,-3.164 0.973,-6.29 1.85,-9.354 0.474,-0.757 0.955,-1.511 1.445,-2.258 0.489,0.749 0.972,1.501 1.444,2.261 0.876,3.061 1.494,6.19 1.847,9.351 1.02,4.8 1.545,9.691 1.567,14.597 0.132,3.317 0.065,6.64 -0.204,9.949 0.053,5.178 -0.308,10.351 -1.08,15.469 -0.026,0.176 -0.133,0.328 -0.288,0.415 -0.156,0.084 -0.341,0.095 -0.504,0.028 -0.082,-0.066 -0.142,-0.147 -0.174,-0.245 -0.839,-2.927 -1.711,-5.846 -2.616,-8.754 -0.904,2.908 -1.778,5.824 -2.617,8.754 -0.032,0.096 -0.093,0.179 -0.177,0.241 m 2.779,75.782 c 2.197,3.687 3.858,7.668 4.933,11.825 0.297,0.687 0.407,1.442 0.317,2.184 -0.048,0.216 -0.232,0.377 -0.451,0.4 -0.252,0.012 -0.504,-0.007 -0.751,-0.063 -1.351,-0.033 -2.703,-0.101 -4.05,-0.197 -1.349,0.096 -2.699,0.162 -4.051,0.197 -0.245,0.055 -0.497,0.075 -0.749,0.06 -0.22,-0.022 -0.404,-0.183 -0.45,-0.4 -0.091,-0.742 0.019,-1.494 0.316,-2.181 1.076,-4.159 2.739,-8.138 4.936,-11.825 m -0.012,73.959 c 0.288,-0.067 0.578,-0.131 0.869,-0.193 0,0 -0.328,0.567 -0.87,1.505 -0.541,-0.938 -0.868,-1.506 -0.868,-1.506 0.292,0.063 0.579,0.127 0.869,0.194 m 0.094,-42.029 c -0.03,-0.002 -0.058,-10e-4 -0.086,-10e-4 -0.03,10e-4 -0.058,0 -0.086,0 -4.565,0.343 -9.127,0.709 -13.688,1.097 -3.456,0.191 -6.915,0.33 -10.374,0.416 l -5.054,-8.755 c -0.319,-0.943 -0.634,-1.884 -0.946,-2.829 -1.302,-4.388 -2.625,-8.77 -3.972,-13.144 -1.747,-4.499 -3.314,-9.065 -4.697,-13.689 -0.054,-0.147 -0.075,-0.3 -0.061,-0.455 0.051,-0.182 0.188,-0.327 0.367,-0.392 0.426,-0.174 0.86,-0.325 1.302,-0.451 2.742,-0.522 5.373,-1.516 7.777,-2.94 0.657,-0.448 1.368,-0.819 2.116,-1.096 0.441,-0.03 0.859,0.199 1.07,0.589 0.672,1.529 1.31,3.07 1.915,4.627 2.745,7.782 5.671,15.497 8.777,23.144 5.185,0.062 10.37,0.052 15.556,-0.037 5.184,0.09 10.37,0.104 15.556,0.042 3.109,-7.646 6.037,-15.36 8.786,-23.14 0.604,-1.556 1.242,-3.098 1.914,-4.625 0.212,-0.39 0.629,-0.621 1.071,-0.592 0.747,0.28 1.458,0.648 2.115,1.099 2.404,1.424 5.034,2.42 7.777,2.941 0.442,0.128 0.875,0.28 1.301,0.452 0.178,0.065 0.316,0.211 0.368,0.394 0.014,0.152 -0.008,0.308 -0.062,0.452 -1.385,4.624 -2.952,9.191 -4.701,13.688 -1.35,4.376 -2.675,8.756 -3.977,13.143 -0.312,0.944 -0.629,1.886 -0.948,2.827 l -5.055,8.754 c -3.461,-0.088 -6.919,-0.226 -10.375,-0.418 -4.559,-0.391 -9.122,-0.757 -13.686,-1.101 m -29.19,-69.974 c 1.33,-2.007 2.363,-4.193 3.07,-6.496 0.074,-0.267 0.174,-0.53 0.297,-0.779 0.047,-0.099 0.134,-0.17 0.241,-0.196 0.041,-0.01 0.084,-0.003 0.121,0.017 0.054,0.029 0.1,0.075 0.131,0.13 0.105,0.241 0.182,0.497 0.223,0.757 0.131,0.793 0.187,1.597 0.162,2.401 0.126,2.145 0.363,4.281 0.708,6.403 0.089,0.743 0.231,1.478 0.424,2.202 0.98,3.784 1.94,7.577 2.881,11.375 0.114,0.373 0.071,0.777 -0.119,1.121 -3.357,4.114 -7.795,7.211 -12.815,8.942 -5.01,1.778 -10.354,2.402 -15.634,1.831 l -15.763,-27.316 c 0.123,-0.646 0.251,-1.289 0.385,-1.935 1.284,-6.678 3.332,-13.186 6.101,-19.399 0.029,-0.046 0.079,-0.075 0.134,-0.079 0.04,-0.002 0.075,0.025 0.08,0.067 -0.018,0.54 -0.073,1.077 -0.167,1.609 -0.232,1.418 -0.435,2.842 -0.609,4.265 -0.154,3.897 0.28,7.794 1.287,11.56 0.579,3.296 1.741,6.458 3.435,9.344 1.428,2.989 4.116,5.181 7.328,5.983 1.495,-0.053 2.988,-0.152 4.477,-0.292 3.12,-1.172 5.965,-2.975 8.358,-5.296 1.973,-1.877 3.737,-3.965 5.264,-6.219 m 1.139,-78.957 c -0.742,2.662 -1.397,5.351 -1.962,8.058 -0.602,3.031 -1.137,6.078 -1.609,9.131 -0.287,2.484 -0.712,4.95 -1.273,7.388 -0.722,6.378 -1.128,12.788 -1.219,19.203 -0.226,7.107 0.004,14.216 0.689,21.29 0.202,2.28 0.447,4.55 0.733,6.819 0.371,1.46 0.456,2.977 0.251,4.469 -1.707,3.471 -4.575,6.233 -8.108,7.811 -0.251,0.141 -0.516,0.256 -0.791,0.34 -0.099,0.029 -0.207,0.011 -0.289,-0.055 -0.092,-0.086 -0.162,-0.19 -0.203,-0.309 -0.23,-0.777 -0.407,-1.567 -0.527,-2.368 -0.653,-4.432 -0.865,-8.913 -0.632,-13.385 -0.147,-5.078 0.118,-10.16 0.787,-15.199 0.456,-4.575 1.07,-9.133 1.843,-13.666 1.218,-6.077 2.513,-12.136 3.883,-18.176 1.287,-5.423 2.861,-10.769 4.72,-16.022 1.723,-4.851 3.816,-9.564 6.256,-14.099 0.087,-0.137 0.202,-0.258 0.338,-0.351 0.016,-0.006 0.034,-0.006 0.049,0.004 0.015,0.011 0.024,0.027 0.024,0.047 l -0.058,0.285 c -1.149,2.863 -2.119,5.799 -2.902,8.785 m 68.955,118.016 c 0.084,-0.157 0.192,-0.3 0.32,-0.423 0.107,-0.093 0.239,-0.149 0.38,-0.157 0.488,0.04 0.976,0.073 1.465,0.104 l -3.589,6.215 c 0.318,-1.279 0.623,-2.562 0.914,-3.85 0.033,-0.658 0.207,-1.303 0.51,-1.889 M 325.291,245.51 c 0.789,0.809 1.648,1.541 2.573,2.186 0.34,0.3 0.494,0.757 0.407,1.2 -0.268,1.845 -0.842,3.633 -1.694,5.292 -0.685,2.621 -1.491,5.21 -2.416,7.755 -0.039,0.25 -0.112,0.492 -0.218,0.722 -0.1,0.195 -0.316,0.309 -0.536,0.273 -0.724,-0.187 -1.386,-0.564 -1.917,-1.09 -3.678,-2.67 -6.935,-5.875 -9.659,-9.513 -1.384,-1.667 -2.709,-3.383 -3.975,-5.14 -1.264,1.757 -2.591,3.471 -3.976,5.14 -2.726,3.636 -5.984,6.841 -9.664,9.506 -0.531,0.528 -1.193,0.904 -1.916,1.093 -0.219,0.033 -0.436,-0.079 -0.536,-0.275 -0.105,-0.229 -0.179,-0.472 -0.219,-0.721 -0.924,-2.546 -1.727,-5.133 -2.412,-7.756 -0.852,-1.657 -1.425,-3.448 -1.693,-5.292 -0.086,-0.443 0.069,-0.902 0.407,-1.202 0.924,-0.643 1.786,-1.375 2.575,-2.184 2.301,-2.594 4.394,-5.366 6.257,-8.291 2.578,-3.656 4.717,-7.601 6.374,-11.754 1.79,-3.705 3.396,-7.493 4.809,-11.355 1.413,3.862 3.017,7.653 4.806,11.355 1.654,4.156 3.793,8.102 6.367,11.756 1.864,2.928 3.956,5.701 6.256,8.295 m 4.949,-45.354 c -0.589,7.762 -1.706,15.478 -3.344,23.089 -0.493,2.289 -1.126,4.546 -1.898,6.758 -0.22,1.39 -0.548,2.761 -0.983,4.105 -0.048,0.147 -0.136,0.275 -0.251,0.377 -0.17,0.11 -0.386,0.122 -0.567,0.032 -0.634,-0.344 -1.19,-0.818 -1.629,-1.388 -2.294,-2.608 -4.27,-5.475 -5.89,-8.546 -0.81,-1.151 -1.551,-2.349 -2.221,-3.586 -0.59,-0.933 -1.043,-1.949 -1.348,-3.011 -0.035,-0.207 -0.015,-0.421 0.06,-0.616 l 0.14,-0.306 2.343,-10.628 c 1.232,-7.58 2.217,-15.199 2.956,-22.843 0.595,-2.345 0.846,-4.758 0.746,-7.173 0.069,-5.224 0.05,-10.446 -0.059,-15.669 -0.088,-2.281 -0.214,-4.561 -0.375,-6.835 -0.916,-7.725 -2.126,-15.413 -3.627,-23.049 -1.864,-7.114 -4.004,-14.155 -6.412,-21.103 -2.412,6.948 -4.555,13.989 -6.42,21.101 -1.505,7.634 -2.718,15.323 -3.637,23.047 -0.162,2.276 -0.287,4.554 -0.376,6.835 -0.111,5.223 -0.133,10.445 -0.065,15.668 -0.101,2.416 0.149,4.831 0.742,7.173 0.735,7.644 1.722,15.265 2.95,22.846 l 2.339,10.628 0.14,0.306 c 0.075,0.197 0.093,0.411 0.058,0.618 -0.305,1.062 -0.757,2.075 -1.348,3.011 -0.671,1.235 -1.411,2.433 -2.221,3.584 -1.622,3.069 -3.6,5.936 -5.894,8.544 -0.44,0.57 -0.994,1.042 -1.628,1.388 -0.182,0.09 -0.398,0.075 -0.567,-0.035 -0.115,-0.102 -0.203,-0.23 -0.253,-0.378 -0.433,-1.34 -0.762,-2.711 -0.982,-4.104 -0.769,-2.212 -1.402,-4.468 -1.895,-6.757 -1.636,-7.611 -2.75,-15.327 -3.336,-23.089 -0.788,-6.051 -1.061,-12.159 -0.813,-18.254 0.109,-3.164 0.283,-6.326 0.52,-9.485 0.859,-7.825 2.147,-15.598 3.858,-23.282 0.849,-4.151 1.947,-8.25 3.285,-12.272 3.791,-12.362 8.971,-24.254 15.44,-35.447 0.035,-0.062 0.07,-0.125 0.104,-0.19 0.034,0.065 0.068,0.128 0.102,0.19 6.467,11.196 11.643,23.089 15.43,35.451 1.337,4.024 2.432,8.123 3.278,12.275 1.709,7.686 2.995,15.459 3.852,23.283 0.237,3.16 0.409,6.319 0.516,9.485 0.245,6.096 -0.029,12.203 -0.82,18.252 m 19.906,20.588 c -0.122,0.801 -0.297,1.591 -0.53,2.367 -0.041,0.118 -0.109,0.226 -0.202,0.31 -0.084,0.065 -0.19,0.084 -0.289,0.055 -0.274,-0.084 -0.541,-0.2 -0.793,-0.342 -3.53,-1.579 -6.396,-4.342 -8.104,-7.813 -0.205,-1.492 -0.119,-3.01 0.252,-4.467 0.288,-2.269 0.534,-4.541 0.736,-6.819 0.688,-7.074 0.921,-14.184 0.696,-21.29 -0.088,-6.418 -0.491,-12.825 -1.211,-19.203 -0.56,-2.438 -0.985,-4.906 -1.271,-7.391 -0.47,-3.055 -1.004,-6.099 -1.607,-9.131 -0.563,-2.707 -1.217,-5.397 -1.958,-8.06 -0.782,-2.985 -1.753,-5.919 -2.899,-8.785 l -0.057,-0.283 c 0,-0.019 0.008,-0.038 0.025,-0.046 0.012,-0.011 0.032,-0.013 0.047,-0.004 0.135,0.09 0.25,0.21 0.338,0.347 2.44,4.538 4.53,9.251 6.251,14.103 1.858,5.252 3.43,10.599 4.714,16.023 1.368,6.04 2.661,12.102 3.876,18.176 0.772,4.533 1.384,9.091 1.839,13.668 0.668,5.039 0.93,10.119 0.782,15.199 0.231,4.47 0.018,8.955 -0.635,13.386 m -46.02,73.021 c -0.011,-0.416 0.305,-0.766 0.717,-0.798 1.003,-0.091 2.004,-0.19 3.007,-0.297 1,0.107 2.001,0.207 3.004,0.298 0.412,0.032 0.727,0.382 0.717,0.798 -0.933,3.69 -2.179,7.294 -3.724,10.769 -1.545,-3.476 -2.79,-7.08 -3.721,-10.77 m 89.283,-79.649 c -1.344,0.505 -2.676,1.042 -3.998,1.604 -3.449,1.813 -6.607,4.139 -9.366,6.894 -2.565,2.147 -4.723,4.737 -6.374,7.647 -1.875,2.729 -2.43,6.153 -1.518,9.339 0.793,1.268 1.624,2.509 2.492,3.729 2.574,2.116 5.557,3.68 8.765,4.59 2.611,0.769 5.3,1.254 8.018,1.451 2.401,0.147 4.811,-0.053 7.16,-0.592 0.268,-0.069 0.544,-0.113 0.822,-0.13 0.109,-0.01 0.215,0.03 0.291,0.11 0.029,0.029 0.046,0.071 0.046,0.113 0,0.063 -0.016,0.123 -0.047,0.178 -0.156,0.212 -0.339,0.405 -0.545,0.572 -0.622,0.512 -1.29,0.961 -1.998,1.34 -1.794,1.183 -3.525,2.455 -5.189,3.814 -0.599,0.449 -1.165,0.942 -1.696,1.468 -2.79,2.742 -5.593,5.472 -8.411,8.186 -0.266,0.285 -0.638,0.45 -1.03,0.457 -5.242,-0.852 -10.142,-3.146 -14.152,-6.63 -4.045,-3.449 -7.257,-7.765 -9.403,-12.622 -5.279,0.568 -10.623,-0.057 -15.632,-1.837 -5.02,-1.732 -9.456,-4.831 -12.813,-8.946 -0.189,-0.342 -0.231,-0.747 -0.118,-1.122 0.942,-3.795 1.903,-7.588 2.886,-11.375 0.191,-0.721 0.334,-1.458 0.424,-2.202 0.345,-2.12 0.582,-4.256 0.711,-6.401 -0.025,-0.803 0.03,-1.605 0.162,-2.398 0.042,-0.262 0.117,-0.518 0.223,-0.759 0.031,-0.053 0.076,-0.099 0.132,-0.13 0.035,-0.022 0.078,-0.027 0.12,-0.017 0.108,0.027 0.194,0.101 0.24,0.197 0.124,0.25 0.223,0.511 0.298,0.778 0.705,2.302 1.738,4.489 3.068,6.495 1.526,2.259 3.29,4.345 5.26,6.224 2.394,2.32 5.238,4.126 8.358,5.297 1.488,0.143 2.981,0.242 4.476,0.294 3.213,-0.8 5.903,-2.994 7.33,-5.982 1.696,-2.883 2.858,-6.047 3.439,-9.341 1.009,-3.767 1.443,-7.663 1.291,-11.558 -0.174,-1.426 -0.377,-2.848 -0.608,-4.265 -0.094,-0.532 -0.149,-1.071 -0.167,-1.61 0.005,-0.042 0.04,-0.072 0.081,-0.07 0.055,0.004 0.105,0.036 0.134,0.082 2.768,6.212 4.813,12.723 6.094,19.403 0.135,0.641 0.262,1.288 0.385,1.933 l -7.885,13.655 7.885,-13.655 c 0.622,-0.216 1.244,-0.428 1.868,-0.633 6.427,-2.229 13.086,-3.71 19.852,-4.416 0.054,0 0.106,0.03 0.136,0.074 0.023,0.038 0.015,0.08 -0.018,0.104 -0.477,0.256 -0.969,0.477 -1.479,0.663 m 43.863,39.188 c -0.138,-0.108 -0.224,-0.274 -0.228,-0.451 -0.004,-0.176 0.075,-0.346 0.214,-0.457 4.049,-3.225 8.349,-6.121 12.86,-8.665 2.734,-1.886 5.577,-3.605 8.517,-5.149 4.261,-2.432 8.761,-4.422 13.428,-5.936 2.916,-1.274 5.933,-2.301 9.022,-3.073 0.893,0.031 1.788,0.072 2.681,0.121 -0.405,0.799 -0.816,1.594 -1.236,2.382 -2.213,2.29 -4.614,4.387 -7.176,6.276 -3.646,3.281 -7.62,6.181 -11.857,8.655 -2.808,1.773 -5.719,3.376 -8.72,4.797 -4.458,2.635 -9.117,4.911 -13.936,6.801 -0.164,0.064 -0.351,0.047 -0.502,-0.043 -0.152,-0.092 -0.252,-0.248 -0.275,-0.423 0.013,-0.104 0.055,-0.198 0.124,-0.274 2.116,-2.19 4.207,-4.404 6.274,-6.641 -2.972,0.671 -5.935,1.373 -8.891,2.109 -0.099,0.021 -0.203,0.01 -0.299,-0.029 m 32.164,-44.306 c -3.056,0.437 -6.082,1.064 -9.058,1.879 -2.68,0.687 -5.334,1.465 -7.961,2.329 -2.928,0.996 -5.832,2.053 -8.713,3.172 -2.296,0.994 -4.643,1.86 -7.036,2.592 -5.883,2.564 -11.637,5.416 -17.239,8.546 -6.266,3.359 -12.31,7.112 -18.094,11.243 -1.872,1.312 -3.717,2.662 -5.538,4.044 -1.078,1.051 -2.35,1.883 -3.744,2.451 -3.86,0.256 -7.687,-0.845 -10.82,-3.117 -0.247,-0.148 -0.477,-0.32 -0.689,-0.514 -0.075,-0.071 -0.112,-0.175 -0.098,-0.277 0.029,-0.121 0.085,-0.238 0.168,-0.331 0.556,-0.589 1.154,-1.137 1.787,-1.64 3.51,-2.78 7.287,-5.208 11.277,-7.242 4.325,-2.667 8.858,-4.978 13.554,-6.917 4.192,-1.894 8.446,-3.64 12.758,-5.237 5.869,-1.982 11.766,-3.89 17.683,-5.724 5.339,-1.598 10.756,-2.908 16.234,-3.924 5.064,-0.933 10.19,-1.477 15.337,-1.633 0.165,0.009 0.325,0.046 0.473,0.119 0.013,0.011 0.022,0.028 0.022,0.042 -0.002,0.02 -0.013,0.037 -0.028,0.047 z m 37.502,7.443 c -6.463,11.197 -14.175,21.625 -22.988,31.088 -2.815,3.168 -5.818,6.166 -8.99,8.976 -5.802,5.323 -11.891,10.322 -18.239,14.978 -2.617,1.783 -5.267,3.512 -7.956,5.189 -5.157,3.261 -10.581,6.077 -16.217,8.416 -7.017,3.372 -14.256,6.261 -21.667,8.649 -2.23,0.716 -4.5,1.296 -6.801,1.735 -1.314,0.505 -2.667,0.906 -4.046,1.2 -0.15,0.03 -0.306,0.018 -0.452,-0.029 -0.182,-0.092 -0.3,-0.274 -0.311,-0.475 -0.021,-0.722 0.112,-1.439 0.386,-2.104 1.114,-3.292 2.608,-6.436 4.455,-9.375 0.594,-1.277 1.259,-2.517 1.995,-3.715 0.515,-0.979 1.167,-1.877 1.935,-2.672 0.161,-0.135 0.356,-0.224 0.563,-0.257 l 0.336,-0.032 10.374,-3.285 c 7.182,-2.724 14.273,-5.678 21.262,-8.862 2.326,-0.658 4.545,-1.645 6.585,-2.941 4.558,-2.552 9.072,-5.181 13.54,-7.886 1.931,-1.216 3.842,-2.464 5.733,-3.742 6.231,-4.657 12.285,-9.549 18.146,-14.664 5.229,-5.173 10.256,-10.545 15.07,-16.108 -7.223,1.389 -14.392,3.053 -21.485,4.993 -7.362,2.516 -14.627,5.309 -21.776,8.374 -2.053,0.998 -4.089,2.028 -6.108,3.092 -4.577,2.515 -9.112,5.108 -13.601,7.778 -2.143,1.119 -4.11,2.545 -5.842,4.23 -6.253,4.46 -12.36,9.121 -18.311,13.975 l -8.034,7.341 -0.194,0.274 c -0.133,0.164 -0.309,0.287 -0.506,0.36 -1.071,0.267 -2.177,0.382 -3.281,0.336 -1.407,0.04 -2.813,-0.004 -4.216,-0.13 -3.469,0.13 -6.939,-0.151 -10.345,-0.833 -0.714,-0.095 -1.401,-0.338 -2.015,-0.718 -0.17,-0.11 -0.267,-0.302 -0.254,-0.505 0.029,-0.152 0.097,-0.292 0.2,-0.407 0.944,-1.046 1.968,-2.017 3.062,-2.905 1.531,-1.771 3.168,-3.446 4.907,-5.019 5.774,-5.221 11.897,-10.045 18.327,-14.434 4.844,-3.707 9.999,-6.996 15.401,-9.831 2.796,-1.488 5.62,-2.916 8.474,-4.292 7.206,-3.168 14.582,-5.939 22.091,-8.299 4.021,-1.34 8.119,-2.44 12.271,-3.292 12.601,-2.897 25.489,-4.356 38.418,-4.35 0.073,-0.004 0.145,-0.004 0.216,-0.006 -0.038,0.06 -0.074,0.121 -0.112,0.184 m -168.513,92.834 c 0.355,-0.215 0.814,-0.118 1.049,0.223 0.579,0.824 1.166,1.642 1.759,2.455 0.408,0.921 0.822,1.837 1.246,2.751 0.176,0.374 0.032,0.821 -0.333,1.02 -3.663,1.038 -7.407,1.76 -11.189,2.159 2.237,-3.075 4.736,-5.956 7.468,-8.608 m 19.507,-51.785 c 0.099,-0.119 0.222,-0.214 0.363,-0.281 0.184,-0.044 0.378,0 0.524,0.124 0.363,0.283 0.71,0.583 1.041,0.901 1.824,2.114 4,3.896 6.433,5.268 0.719,0.342 1.394,0.773 2.011,1.283 0.245,0.366 0.253,0.843 0.022,1.22 -0.987,1.349 -2.004,2.671 -3.05,3.972 -5.366,6.268 -10.585,12.66 -15.652,19.172 2.536,4.524 5.139,9.009 7.808,13.455 2.514,4.535 5.095,9.032 7.742,13.492 8.175,-1.13 16.319,-2.45 24.433,-3.961 1.649,-0.254 3.304,-0.473 4.963,-0.654 0.443,-0.011 0.852,0.235 1.047,0.631 0.133,0.787 0.167,1.588 0.105,2.383 -0.03,2.793 0.424,5.568 1.341,8.205 0.112,0.445 0.198,0.897 0.26,1.351 0.034,0.189 -0.024,0.38 -0.157,0.516 -0.125,0.088 -0.27,0.148 -0.423,0.174 -4.697,1.112 -9.433,2.037 -14.205,2.772 -4.462,1.019 -8.919,2.061 -13.369,3.127 -0.975,0.202 -1.947,0.4 -2.924,0.593 l -10.109,-0.002 c -1.655,-3.04 -3.261,-6.105 -4.824,-9.192 -1.942,-4.145 -3.905,-8.28 -5.889,-12.405 -0.014,-0.026 -0.028,-0.049 -0.042,-0.074 -0.016,-0.026 -0.03,-0.051 -0.044,-0.076 -2.579,-3.782 -5.176,-7.549 -7.794,-11.302 -1.893,-2.9 -3.742,-5.827 -5.546,-8.78 l 5.055,-8.754 c 0.656,-0.746 1.315,-1.491 1.977,-2.233 3.15,-3.321 6.282,-6.656 9.397,-10.01 3.023,-3.765 6.194,-7.405 9.506,-10.915 m -6.105,0.218 c 0.065,0.126 0.082,0.271 0.054,0.407 -0.043,0.174 -0.111,0.34 -0.206,0.489 -0.357,0.557 -0.827,1.029 -1.382,1.387 -0.969,0.894 -1.93,1.8 -2.877,2.716 l 3.59,-6.215 c 0.27,0.407 0.544,0.814 0.821,1.216 m 122.248,19.621 c -4.55,4.206 -9.15,8.357 -13.804,12.445 -3.54,2.936 -7.182,5.746 -10.918,8.427 -4.028,3.096 -8.298,5.865 -12.771,8.277 -3.757,2.435 -7.746,4.492 -11.909,6.141 -0.755,0.296 -1.528,0.539 -2.316,0.726 -0.123,0.024 -0.251,0.017 -0.37,-0.02 -0.096,-0.04 -0.168,-0.123 -0.191,-0.224 -0.065,-0.28 -0.099,-0.567 -0.102,-0.855 -0.397,-3.848 0.563,-7.713 2.714,-10.926 1.192,-0.923 2.548,-1.608 3.997,-2.016 2.107,-0.884 4.199,-1.81 6.271,-2.773 6.471,-2.94 12.746,-6.294 18.787,-10.041 5.514,-3.284 10.861,-6.839 16.026,-10.65 1.831,-1.706 3.755,-3.306 5.765,-4.797 2.41,-1.935 4.778,-3.921 7.104,-5.956 2.062,-1.844 4.065,-3.753 6,-5.727 2.195,-2.17 4.252,-4.476 6.16,-6.904 l 0.215,-0.19 c 0.018,-0.011 0.037,-0.011 0.054,-0.002 0.016,0.006 0.026,0.022 0.026,0.042 -0.01,0.161 -0.056,0.32 -0.133,0.465 -2.708,4.379 -5.745,8.545 -9.085,12.464 -3.621,4.236 -7.466,8.27 -11.52,12.094 m -165.097,53.238 c 0.202,0.218 0.402,0.436 0.601,0.657 h -1.352 1.352 c -0.199,0.22 -0.398,0.439 -0.601,0.656 -0.087,0.283 -0.176,0.566 -0.267,0.849 0,0 -0.329,-0.569 -0.87,-1.505 0.542,-0.938 0.87,-1.505 0.87,-1.505 0.092,0.282 0.181,0.565 0.267,0.848 m 81.779,-0.463 c 0.587,-0.3 1.231,-0.473 1.891,-0.503 0.178,-0.006 0.357,0.018 0.526,0.066 0.134,0.046 0.249,0.132 0.326,0.25 0.211,0.442 0.425,0.883 0.643,1.321 l -7.176,-10e-4 c 1.267,-0.362 2.53,-0.741 3.79,-1.133 m 11.041,-28.889 c 0.201,-0.336 0.53,-0.575 0.912,-0.664 3.759,-1.082 7.523,-2.145 11.293,-3.188 0.724,-0.195 1.431,-0.439 2.119,-0.733 2.009,-0.76 3.978,-1.624 5.899,-2.586 0.684,-0.422 1.407,-0.776 2.161,-1.059 0.246,-0.095 0.505,-0.157 0.767,-0.186 0.062,0.001 0.124,0.017 0.178,0.049 0.036,0.021 0.061,0.056 0.074,0.096 0.031,0.106 0.013,0.219 -0.049,0.308 -0.155,0.23 -0.332,0.447 -0.525,0.645 -1.642,1.763 -3.02,3.751 -4.093,5.905 -1.191,2.451 -2.116,5.022 -2.758,7.668 -0.815,3.233 -0.954,6.598 -0.408,9.885 0.62,1.361 1.281,2.703 1.982,4.024 2.3,2.384 5.545,3.615 8.845,3.358 3.346,0.025 6.667,-0.549 9.811,-1.693 3.765,-1.01 7.357,-2.582 10.655,-4.661 1.147,-0.862 2.277,-1.75 3.391,-2.658 0.413,-0.349 0.85,-0.665 1.31,-0.951 0.037,-0.016 0.079,0 0.098,0.036 0.025,0.05 0.023,0.108 -0.004,0.157 -3.995,5.503 -8.609,10.529 -13.752,14.978 -0.493,0.438 -0.986,0.871 -1.483,1.301 l -31.537,-0.006 c -3.134,-4.287 -5.264,-9.228 -6.228,-14.457 -1.01,-5.213 -0.543,-10.604 1.342,-15.568 m -38.271,3.933 c -0.212,0.068 -0.442,-0.01 -0.571,-0.19 -0.139,-0.211 -0.247,-0.438 -0.323,-0.68 -0.646,-1.187 -1.264,-2.39 -1.853,-3.606 -0.759,-1.119 -1.49,-2.256 -2.195,-3.41 -0.172,-0.186 -0.314,-0.394 -0.428,-0.619 -0.091,-0.201 -0.044,-0.441 0.12,-0.589 0.599,-0.45 1.306,-0.732 2.048,-0.818 4.139,-1.146 8.418,-1.696 12.709,-1.636 -2.096,3.745 -4.713,7.174 -7.775,10.185 -0.446,0.599 -1.044,1.07 -1.732,1.363 m 6.661,-33.008 c 1.02,0.48 2.084,0.86 3.179,1.137 3.398,0.697 6.846,1.123 10.309,1.274 4.454,0.405 8.94,0.285 13.367,-0.357 4.103,-0.301 8.187,-0.806 12.238,-1.513 -2.638,3.154 -5.119,6.438 -7.432,9.84 -2.772,3.51 -5.12,7.334 -6.998,11.394 -1.601,3.075 -2.957,6.273 -4.054,9.564 -0.307,1.087 -0.511,2.199 -0.607,3.322 -0.09,0.443 -0.408,0.805 -0.837,0.951 -1.733,0.69 -3.568,1.088 -5.429,1.178 -2.612,0.718 -5.257,1.315 -7.926,1.786 -0.234,0.091 -0.48,0.149 -0.731,0.173 -0.221,0.011 -0.426,-0.121 -0.506,-0.329 -0.199,-0.72 -0.203,-1.481 -0.012,-2.204 0.471,-4.521 1.618,-8.944 3.406,-13.121 0.753,-2.034 1.575,-4.04 2.463,-6.012 -2.152,-0.219 -4.3,-0.51 -6.437,-0.875 -4.512,-0.542 -8.915,-1.761 -13.065,-3.616 -0.722,-0.196 -1.38,-0.58 -1.904,-1.113 -0.14,-0.173 -0.15,-0.418 -0.031,-0.6 0.146,-0.207 0.319,-0.392 0.515,-0.549 1.743,-2.074 3.582,-4.067 5.513,-5.969 1.008,-1.568 2.27,-2.956 3.736,-4.111 0.339,-0.298 0.814,-0.393 1.243,-0.25 m -34.824,50.122 c 0.567,-0.201 1.197,-0.092 1.66,0.289 0.154,0.176 0.303,0.353 0.454,0.534 1.236,1.826 2.553,3.597 3.944,5.306 0.64,0.985 1.333,1.934 2.078,2.838 l -16.703,-0.003 c -0.489,-0.745 -0.979,-1.489 -1.473,-2.231 -1.095,-2.002 -2.383,-3.892 -3.849,-5.64 -0.781,-2.143 -1.772,-4.204 -2.957,-6.153 -0.397,-0.799 -0.795,-1.596 -1.196,-2.393 -0.891,0.051 -1.78,0.104 -2.669,0.16 -2.281,-0.052 -4.562,0.118 -6.808,0.514 -2.246,-0.397 -4.527,-0.568 -6.808,-0.516 -0.891,-0.057 -1.78,-0.11 -2.671,-0.161 l -8.349,-14.468 c 1.156,0.194 2.323,0.32 3.497,0.383 2.176,0.35 4.37,0.607 6.569,0.765 0.23,0.039 0.458,0.08 0.688,0.125 0.562,0.212 0.97,0.704 1.08,1.294 1.415,3.502 3.017,6.925 4.8,10.252 0.408,0.434 0.805,0.877 1.194,1.328 0.388,-0.45 0.787,-0.894 1.193,-1.327 1.784,-3.327 3.389,-6.75 4.804,-10.25 0.109,-0.592 0.518,-1.082 1.081,-1.295 0.229,-0.043 0.458,-0.085 0.688,-0.124 2.2,-0.158 4.391,-0.414 6.568,-0.763 1.174,-0.062 2.342,-0.188 3.497,-0.381 0.412,1.098 0.885,2.173 1.418,3.218 0.785,2.062 1.659,4.088 2.622,6.072 0.082,0.219 0.159,0.439 0.236,0.659 0.097,0.593 -0.124,1.192 -0.582,1.582 -2.324,2.976 -4.487,6.075 -6.476,9.284 -0.174,0.569 -0.36,1.135 -0.556,1.697 0.587,0.111 1.167,0.234 1.748,0.37 3.773,-0.119 7.539,-0.44 11.278,-0.965"
           style="fill:#231f20;fill-opacity:1;fill-rule:evenodd;stroke:none"
           id="path116505"
           inkscape:connector-curvature="0" /></g></g></g></svg>